<?xml version="1.0" encoding="UTF-8"?>
<svg version="1.1" xmlns="http://www.w3.org/2000/svg" width="300" height="168">
<path d="M0 0 C99 0 198 0 300 0 C300 55.44 300 110.88 300 168 C201 168 102 168 0 168 C0 112.56 0 57.12 0 0 Z " fill="#09402B" transform="translate(0,0)"/>
<path d="M0 0 C2.97 0 5.94 0 9 0 C7.23040879 7.65482259 5.845516 13.13822065 -0.6875 18 C-3.35802248 20.30964106 -3.71241619 21.54899426 -4 25 C-5.32 24.67 -6.64 24.34 -8 24 C-8 27.96 -8 31.92 -8 36 C-7.67 35.01 -7.34 34.02 -7 33 C-6.67 32.01 -6.34 31.02 -6 30 C-4 32 -4 32 -4 35 C-3.34 35.33 -2.68 35.66 -2 36 C-2.639375 36.4125 -3.27875 36.825 -3.9375 37.25 C-6.20990931 39.17810487 -6.60196439 40.11424181 -7 43 C-5.515 43.495 -5.515 43.495 -4 44 C-3.27103642 47.00697479 -3.01557697 49.44394379 -3.125 52.5625 C-2.99153727 56.23272495 -2.49044503 57.40578643 0 60 C0 59.34 0 58.68 0 58 C1.32 58 2.64 58 4 58 C4 57.34 4 56.68 4 56 C5.32 56 6.64 56 8 56 C7.505 55.608125 7.01 55.21625 6.5 54.8125 C4.54406857 52.44908285 4.75792027 50.98564997 5 48 C11.52307692 47.63076923 11.52307692 47.63076923 13.9375 49.5 C14.288125 49.995 14.63875 50.49 15 51 C15.78375 50.505 16.5675 50.01 17.375 49.5 C20 48 20 48 22 48 C22 48.66 22 49.32 22 50 C25.63 49.34 29.26 48.68 33 48 C33 47.01 33 46.02 33 45 C33.66 45 34.32 45 35 45 C35 45.99 35 46.98 35 48 C35.99 47.67 36.98 47.34 38 47 C39.39439664 46.93334624 40.79169875 46.91461801 42.1875 46.9375 C43.445625 46.958125 44.70375 46.97875 46 47 C45.34 48.32 44.68 49.64 44 51 C45.98 51 47.96 51 50 51 C50 50.01 50 49.02 50 48 C52.88834003 45.89229241 54.38462395 45 58 45 C58.66 45.99 59.32 46.98 60 48 C60.99 48.33 61.98 48.66 63 49 C62.50886719 49.37769531 62.01773438 49.75539062 61.51171875 50.14453125 C59.42102117 52.71063292 59.69737798 54.42570933 59.8125 57.6875 C59.83957031 58.68136719 59.86664063 59.67523438 59.89453125 60.69921875 C59.92933594 61.45847656 59.96414062 62.21773437 60 63 C59.34 63 58.68 63 58 63 C58 62.34 58 61.68 58 61 C57.01 61 56.02 61 55 61 C55 60.34 55 59.68 55 59 C55.66 59 56.32 59 57 59 C57 57.68 57 56.36 57 55 C56.01 55 55.02 55 54 55 C53.34 57.64 52.68 60.28 52 63 C52.66 63.33 53.32 63.66 54 64 C53.67 64.5775 53.34 65.155 53 65.75 C51.72924102 68.19883862 51.72924102 68.19883862 52 72 C50.35 72 48.7 72 47 72 C44.90649311 75.4019487 44.82057837 78.05272412 45 82 C45.99 80.515 45.99 80.515 47 79 C49.97 79.495 49.97 79.495 53 80 C52.67 81.65 52.34 83.3 52 85 C51.01 85 50.02 85 49 85 C48.9175 85.680625 48.835 86.36125 48.75 87.0625 C47.77667472 90.8746907 46.04192545 93.64070329 44 97 C45.1446875 96.690625 45.1446875 96.690625 46.3125 96.375 C49 96 49 96 52 98 C52 99.32 52 100.64 52 102 C52.2981424 103.34164079 52.62243192 104.67851173 53 106 C54.43333021 106.39063507 55.87192679 106.76198474 57.3125 107.125 C58.11300781 107.33382812 58.91351563 107.54265625 59.73828125 107.7578125 C62.28207233 108.27427334 62.28207233 108.27427334 65 106 C68.1875 105.875 68.1875 105.875 71 106 C70.835 106.639375 70.67 107.27875 70.5 107.9375 C69.96073333 109.80826821 69.96073333 109.80826821 70 111 C70.99 110.67 71.98 110.34 73 110 C73.99 110.66 74.98 111.32 76 112 C76.37125 110.576875 76.37125 110.576875 76.75 109.125 C78 106 78 106 80.125 104.625 C81.053125 104.315625 81.053125 104.315625 82 104 C81.49396008 106.16874252 81.00016187 107.99967627 80 110 C81.32 110 82.64 110 84 110 C85.75 112.5 85.75 112.5 87 115 C85.824375 115.4021875 85.824375 115.4021875 84.625 115.8125 C81.71885077 116.84814432 81.71885077 116.84814432 80 120 C78.00475883 120.36914349 78.00475883 120.36914349 75.50753784 120.36076355 C74.56240326 120.36488754 73.61726868 120.36901154 72.64349365 120.3732605 C71.08335541 120.35708176 71.08335541 120.35708176 69.49169922 120.34057617 C68.39900726 120.34101425 67.30631531 120.34145233 66.18051147 120.34190369 C62.55505743 120.33980731 58.93006114 120.31643584 55.3046875 120.29296875 C52.79648084 120.28737583 50.28827092 120.2831043 47.78005981 120.28010559 C41.84433569 120.26980671 35.90875937 120.24614291 29.97311127 120.21605712 C22.55371813 120.17926528 15.13430471 120.16312895 7.71484375 120.14648438 C-5.52352156 120.11427761 -18.76175034 120.06362601 -32 120 C-31.34 119.67 -30.68 119.34 -30 119 C-30 118.01 -30 117.02 -30 116 C-29.34 116 -28.68 116 -28 116 C-28 114.02 -28 112.04 -28 110 C-32.84241633 108.66416101 -36.93437617 107.74671881 -42 108 C-42.33 106.68 -42.66 105.36 -43 104 C-44.98 104 -46.96 104 -49 104 C-49 102.02 -49 100.04 -49 98 C-48.01 97.67 -47.02 97.34 -46 97 C-46.33 98.65 -46.66 100.3 -47 102 C-46.34 101.67 -45.68 101.34 -45 101 C-45 99.35 -45 97.7 -45 96 C-43.68 96 -42.36 96 -41 96 C-40.67 95.34 -40.34 94.68 -40 94 C-38.68 94.66 -37.36 95.32 -36 96 C-36.2475 94.7315625 -36.2475 94.7315625 -36.5 93.4375 C-37.01329288 89.90861144 -37.07121346 86.56067311 -37 83 C-37.33 83.66 -37.66 84.32 -38 85 C-38.66 85 -39.32 85 -40 85 C-40.495 86.485 -40.495 86.485 -41 88 C-42.125 84.25 -42.125 84.25 -41 82 C-40.95977609 79.6670134 -40.95679753 77.33293334 -41 75 C-41.33 75.515625 -41.66 76.03125 -42 76.5625 C-44.46229584 78.33227513 -45.25492998 78.07158882 -48.1875 77.6875 C-49.445625 77.460625 -50.70375 77.23375 -52 77 C-51.938125 77.78375 -51.87625 78.5675 -51.8125 79.375 C-51.874375 80.24125 -51.93625 81.1075 -52 82 C-53.485 82.99 -53.485 82.99 -55 84 C-56.32 83.34 -57.64 82.68 -59 82 C-59.33 82.99 -59.66 83.98 -60 85 C-59.505 85.99 -59.505 85.99 -59 87 C-58.01 86.505 -58.01 86.505 -57 86 C-56.67 89.3 -56.34 92.6 -56 96 C-56.94875 96.61875 -57.8975 97.2375 -58.875 97.875 C-61.94445109 99.81970969 -61.94445109 99.81970969 -64 102 C-64 101.34 -64 100.68 -64 100 C-65.65 99.67 -67.3 99.34 -69 99 C-69.99 96.03 -70.98 93.06 -72 90 C-72.66 90 -73.32 90 -74 90 C-74 89.34 -74 88.68 -74 88 C-72.35 88.33 -70.7 88.66 -69 89 C-65.68557793 84.53273547 -65.33990833 80.37992836 -65 75 C-65.66 74.67 -66.32 74.34 -67 74 C-66.01 74 -65.02 74 -64 74 C-64 73.01 -64 72.02 -64 71 C-63.34 71 -62.68 71 -62 71 C-62 70.34 -62 69.68 -62 69 C-63.65 69 -65.3 69 -67 69 C-66.67 67.35 -66.34 65.7 -66 64 C-66.99 64 -67.98 64 -69 64 C-69.33 63.34 -69.66 62.68 -70 62 C-70.721875 62.495 -71.44375 62.99 -72.1875 63.5 C-75.14848659 65.07919285 -76.71253029 65.28178312 -80 65 C-80.33 64.01 -80.66 63.02 -81 62 C-80.2575 61.855625 -79.515 61.71125 -78.75 61.5625 C-76.47972261 61.09812508 -74.24240521 60.58136431 -72 60 C-72 58.68 -72 57.36 -72 56 C-71.34 56 -70.68 56 -70 56 C-70.71563266 53.9837767 -70.71563266 53.9837767 -72 52 C-74.05000871 51.19471111 -74.05000871 51.19471111 -76 51 C-76 50.34 -76 49.68 -76 49 C-75.38125 48.938125 -74.7625 48.87625 -74.125 48.8125 C-71.78344855 48.17824983 -71.78344855 48.17824983 -70.75 45.75 C-69.89310855 43.08313779 -69.89310855 43.08313779 -70 40.5625 C-70 36.70956336 -68.70992197 33.41984394 -67 30 C-64.9375 28.875 -64.9375 28.875 -63 28 C-63.66 27.34 -64.32 26.68 -65 26 C-65.99 26 -66.98 26 -68 26 C-68 25.34 -68 24.68 -68 24 C-68.66 23.67 -69.32 23.34 -70 23 C-69.01 22.67 -68.02 22.34 -67 22 C-66.855625 21.21625 -66.71125 20.4325 -66.5625 19.625 C-66 17 -66 17 -65 15 C-62.13275314 15.57344937 -61.1385485 15.8614515 -59 18 C-58.608125 16.906875 -58.21625 15.81375 -57.8125 14.6875 C-56.2274876 11.03091324 -54.7378086 9.61405372 -51 8 C-48.68308546 7.27833809 -46.35151077 6.59940471 -44 6 C-44 5.34 -44 4.68 -44 4 C-43.34 4 -42.68 4 -42 4 C-42 4.66 -42 5.32 -42 6 C-40.02 5.67 -38.04 5.34 -36 5 C-35.34 5.99 -34.68 6.98 -34 8 C-34.66 8.66 -35.32 9.32 -36 10 C-36.03237987 12.00755181 -36.05864443 14.01637087 -36.00390625 16.0234375 C-35.99969257 18.15555915 -36.32585508 19.97756523 -37 22 C-36.34 22.33 -35.68 22.66 -35 23 C-36.65 23 -38.3 23 -40 23 C-40.33 24.32 -40.66 25.64 -41 27 C-42.65 27 -44.3 27 -46 27 C-46.495 25.515 -46.495 25.515 -47 24 C-49.01508358 23.26676204 -49.01508358 23.26676204 -51 23 C-51 23.66 -51 24.32 -51 25 C-50.34 25 -49.68 25 -49 25 C-49 25.66 -49 26.32 -49 27 C-49.99 27.66 -50.98 28.32 -52 29 C-52 29.99 -52 30.98 -52 32 C-51.278125 31.71125 -50.55625 31.4225 -49.8125 31.125 C-47.20833333 30.08333333 -44.60416667 29.04166667 -42 28 C-41.505 29.98 -41.505 29.98 -41 32 C-38.83333333 31.16666667 -38.83333333 31.16666667 -38 29 C-37.34 29.33 -36.68 29.66 -36 30 C-36 29.34 -36 28.68 -36 28 C-36.66 27.67 -37.32 27.34 -38 27 C-31.375 25 -31.375 25 -28 25 C-28 22.03 -28 19.06 -28 16 C-27.030625 15.608125 -26.06125 15.21625 -25.0625 14.8125 C-21.77823609 13.32405113 -21.77823609 13.32405113 -21.125 10.3125 C-21.08375 9.549375 -21.0425 8.78625 -21 8 C-19.39125 8.061875 -19.39125 8.061875 -17.75 8.125 C-14.16522365 8.00550745 -13.00331933 7.60177031 -10 6 C-7.25 5.875 -7.25 5.875 -5 6 C-4.505 6.99 -4.505 6.99 -4 8 C-2.68 8 -1.36 8 0 8 C0 6.68 0 5.36 0 4 C0.66 4 1.32 4 2 4 C2 3.01 2 2.02 2 1 C1.01 0.505 1.01 0.505 0 0 Z " fill="#093F2B" transform="translate(132,48)"/>
<path d="M0 0 C0.495 1.485 0.495 1.485 1 3 C1.99 3 2.98 3 4 3 C3.67 4.65 3.34 6.3 3 8 C4.65 8 6.3 8 8 8 C8 8.66 8 9.32 8 10 C7.34 10 6.68 10 6 10 C5.14396623 12.92644103 4.94136009 15.39846827 5.0625 18.4375 C5.09233176 22.05907516 4.97299214 24.84321257 3 28 C1.0625 28.9375 1.0625 28.9375 -1 29 C-1.99 28.34 -2.98 27.68 -4 27 C-4 27.66 -4 28.32 -4 29 C-3.34 29 -2.68 29 -2 29 C-2 29.66 -2 30.32 -2 31 C-1.34 31.33 -0.68 31.66 0 32 C0.72693904 33.97888961 1.39816251 35.97954558 2 38 C4.19514873 38.9593157 4.19514873 38.9593157 7 39 C10.5638482 37.00295731 10.5638482 37.00295731 13 34 C13.21756421 31.05200501 12.69445883 28.92664791 12 26 C11.34 26.33 10.68 26.66 10 27 C9.67 25.35 9.34 23.7 9 22 C9.99 21.34 10.98 20.68 12 20 C13.32 20.66 14.64 21.32 16 22 C16.66 20.02 17.32 18.04 18 16 C19.2375 16.061875 20.475 16.12375 21.75 16.1875 C24.78211302 16.20362826 25.82248296 16.10651023 28.5 14.5 C28.995 14.005 29.49 13.51 30 13 C30 16.66666667 30 20.33333333 30 24 C30.66 24 31.32 24 32 24 C32.495 22.515 32.495 22.515 33 21 C33.93619813 24.15506142 34.1057123 26.96586502 34.0625 30.25 C34.05347656 31.14203125 34.04445313 32.0340625 34.03515625 32.953125 C34.02355469 33.62859375 34.01195313 34.3040625 34 35 C32.515 34.505 32.515 34.505 31 34 C30.67 34.33 30.34 34.66 30 35 C29.01 35.99 29.01 35.99 28 37 C26.515 36.01 26.515 36.01 25 35 C25.495 37.475 25.495 37.475 26 40 C24.515 40.495 24.515 40.495 23 41 C23.33 39.35 23.66 37.7 24 36 C23.01 36.495 23.01 36.495 22 37 C21.34227572 40.02934491 21.34227572 40.02934491 21 43 C21.94875 42.938125 22.8975 42.87625 23.875 42.8125 C24.90625 42.874375 25.9375 42.93625 27 43 C27.66 43.99 28.32 44.98 29 46 C31.32249342 46.40197001 33.65885633 46.72686657 36 47 C39.375 47.875 39.375 47.875 42 49 C43 52 43 52 42 55 C41.34 55 40.68 55 40 55 C40 55.99 40 56.98 40 58 C37.72422532 59.13788734 36.48966576 59.12342063 33.96310425 59.12025452 C32.69685715 59.12231651 32.69685715 59.12231651 31.4050293 59.12442017 C30.477146 59.12082489 29.5492627 59.11722961 28.59326172 59.11352539 C27.12978806 59.11374443 27.12978806 59.11374443 25.63674927 59.1139679 C22.40103966 59.11326935 19.1653871 59.10547966 15.9296875 59.09765625 C13.69052156 59.09579186 11.45135521 59.09436806 9.21218872 59.09336853 C3.31027099 59.08954498 -2.59162224 59.07971607 -8.49353027 59.06866455 C-14.51261056 59.05844694 -20.5316948 59.05387016 -26.55078125 59.04882812 C-38.36720001 59.03809367 -50.18359414 59.02049817 -62 59 C-62 52.73 -62 46.46 -62 40 C-61.01 40 -60.02 40 -59 40 C-59 40.66 -59 41.32 -59 42 C-58.01 41.34 -57.02 40.68 -56 40 C-55.01 40 -54.02 40 -53 40 C-53 39.34 -53 38.68 -53 38 C-53.8971875 37.814375 -53.8971875 37.814375 -54.8125 37.625 C-57 37 -57 37 -60 35 C-59.34 35 -58.68 35 -58 35 C-58 34.34 -58 33.68 -58 33 C-57.34 33 -56.68 33 -56 33 C-56 32.34 -56 31.68 -56 31 C-53.69 31.33 -51.38 31.66 -49 32 C-49.33 33.32 -49.66 34.64 -50 36 C-49.54625 35.505 -49.0925 35.01 -48.625 34.5 C-47 33 -47 33 -45 33 C-45.26676204 31.01508358 -45.26676204 31.01508358 -46 29 C-46.99 28.67 -47.98 28.34 -49 28 C-47.56967163 26.82455195 -46.13046758 25.65989738 -44.6875 24.5 C-43.88699219 23.8503125 -43.08648437 23.200625 -42.26171875 22.53125 C-40 21 -40 21 -37 21 C-36.67 20.01 -36.34 19.02 -36 18 C-33.4375 16.8125 -33.4375 16.8125 -31 16 C-30.34 17.32 -29.68 18.64 -29 20 C-29.66 20.66 -30.32 21.32 -31 22 C-30.67 22.99 -30.34 23.98 -30 25 C-30.33 25.66 -30.66 26.32 -31 27 C-29.02 27.66 -27.04 28.32 -25 29 C-25.33 29.78375 -25.66 30.5675 -26 31.375 C-27.11866511 33.84332497 -27.11866511 33.84332497 -27 36 C-26.34 36 -25.68 36 -25 36 C-25 35.01 -25 34.02 -25 33 C-24.34 33 -23.68 33 -23 33 C-23.34444881 30.52733235 -23.34444881 30.52733235 -24 28 C-24.66 27.67 -25.32 27.34 -26 27 C-26.02696365 25.20841511 -26.04637917 23.41671527 -26.0625 21.625 C-26.07410156 20.62726563 -26.08570313 19.62953125 -26.09765625 18.6015625 C-26 16 -26 16 -25 14 C-24.34 14 -23.68 14 -23 14 C-23 14.99 -23 15.98 -23 17 C-22.505 15.515 -22.505 15.515 -22 14 C-17.75577667 10.96841191 -13.25119759 9 -8 9 C-8 8.01 -8 7.02 -8 6 C-5.525 6.495 -5.525 6.495 -3 7 C-3.66 5.68 -4.32 4.36 -5 3 C-3.35 2.01 -1.7 1.02 0 0 Z " fill="#052C1D" transform="translate(62,109)"/>
<path d="M0 0 C0.66 0 1.32 0 2 0 C2 0.99 2 1.98 2 3 C2.99 2.67 3.98 2.34 5 2 C6.39439664 1.93334624 7.79169875 1.91461801 9.1875 1.9375 C11.0746875 1.9684375 11.0746875 1.9684375 13 2 C12.34 3.32 11.68 4.64 11 6 C12.98 6 14.96 6 17 6 C17 5.01 17 4.02 17 3 C19.88834003 0.89229241 21.38462395 0 25 0 C25.99 1.485 25.99 1.485 27 3 C27.99 3.33 28.98 3.66 30 4 C29.50886719 4.37769531 29.01773438 4.75539063 28.51171875 5.14453125 C26.42102117 7.71063292 26.69737798 9.42570933 26.8125 12.6875 C26.83957031 13.68136719 26.86664063 14.67523438 26.89453125 15.69921875 C26.94673828 16.83810547 26.94673828 16.83810547 27 18 C26.34 18 25.68 18 25 18 C25 17.34 25 16.68 25 16 C24.01 16 23.02 16 22 16 C22 15.34 22 14.68 22 14 C22.66 14 23.32 14 24 14 C24 12.68 24 11.36 24 10 C23.01 10 22.02 10 21 10 C20.34 12.64 19.68 15.28 19 18 C19.66 18.33 20.32 18.66 21 19 C20.67 19.5775 20.34 20.155 20 20.75 C18.72924102 23.19883862 18.72924102 23.19883862 19 27 C17.35 27 15.7 27 14 27 C11.90649311 30.4019487 11.82057837 33.05272412 12 37 C12.66 36.01 13.32 35.02 14 34 C15.98 34.33 17.96 34.66 20 35 C19.67 36.65 19.34 38.3 19 40 C18.01 40 17.02 40 16 40 C15.9175 40.680625 15.835 41.36125 15.75 42.0625 C14.77667472 45.8746907 13.04192545 48.64070329 11 52 C11.763125 51.79375 12.52625 51.5875 13.3125 51.375 C16 51 16 51 19 53 C19 54.32 19 55.64 19 57 C19.2981424 58.34164079 19.62243192 59.67851173 20 61 C21.43333021 61.39063507 22.87192679 61.76198474 24.3125 62.125 C25.11300781 62.33382812 25.91351563 62.54265625 26.73828125 62.7578125 C29.28207233 63.27427334 29.28207233 63.27427334 32 61 C35.1875 60.875 35.1875 60.875 38 61 C37.835 61.639375 37.67 62.27875 37.5 62.9375 C36.96073333 64.80826821 36.96073333 64.80826821 37 66 C37.99 65.67 38.98 65.34 40 65 C41.485 65.99 41.485 65.99 43 67 C43.37125 65.576875 43.37125 65.576875 43.75 64.125 C45 61 45 61 47.125 59.625 C47.74375 59.41875 48.3625 59.2125 49 59 C48.49396008 61.16874252 48.00016187 62.99967627 47 65 C48.32 65 49.64 65 51 65 C52.75 67.5 52.75 67.5 54 70 C52.824375 70.4021875 52.824375 70.4021875 51.625 70.8125 C48.71885077 71.84814432 48.71885077 71.84814432 47 75 C44.55758667 75.36076355 44.55758667 75.36076355 41.44873047 75.34057617 C40.28767792 75.34034958 39.12662537 75.34012299 37.9303894 75.33988953 C36.67203278 75.32440567 35.41367615 75.30892181 34.1171875 75.29296875 C32.19037643 75.28660149 32.19037643 75.28660149 30.22463989 75.28010559 C26.80827359 75.2686468 23.39228944 75.23917143 19.97607422 75.20599365 C16.49061249 75.17531462 13.00508906 75.16160494 9.51953125 75.14648438 C2.67953043 75.11430221 -4.16021644 75.06309376 -11 75 C-11.66 72.69 -12.32 70.38 -13 68 C-11.68 68 -10.36 68 -9 68 C-9 68.66 -9 69.32 -9 70 C-7.02 70 -5.04 70 -3 70 C-3 69.01 -3 68.02 -3 67 C-2.34 67 -1.68 67 -1 67 C-1 67.66 -1 68.32 -1 69 C2.0210714 66.9859524 3.60667426 65.36720387 5 62 C4.34 62 3.68 62 3 62 C3 61.34 3 60.68 3 60 C-0.63 60.33 -4.26 60.66 -8 61 C-8.495 58.03 -8.495 58.03 -9 55 C-8.01 55 -7.02 55 -6 55 C-6.33 54.01 -6.66 53.02 -7 52 C-9.31 52 -11.62 52 -14 52 C-14 50.68 -14 49.36 -14 48 C-15.32 48.99 -16.64 49.98 -18 51 C-15.03 51.33 -12.06 51.66 -9 52 C-9.33 53.65 -9.66 55.3 -10 57 C-10.70125 56.67 -11.4025 56.34 -12.125 56 C-15.26003116 54.90955438 -17.70563182 54.84677357 -21 55 C-21 51.09567131 -20.31626692 48.61973402 -19 45 C-22.465 45.495 -22.465 45.495 -26 46 C-26 45.34 -26 44.68 -26 44 C-27.65 44 -29.3 44 -31 44 C-30.34 41.03 -29.68 38.06 -29 35 C-28.34 35 -27.68 35 -27 35 C-27 34.01 -27 33.02 -27 32 C-28.98 32.495 -28.98 32.495 -31 33 C-31 32.34 -31 31.68 -31 31 C-31.66 31 -32.32 31 -33 31 C-33 31.99 -33 32.98 -33 34 C-34.98 34.495 -34.98 34.495 -37 35 C-37.66 37.64 -38.32 40.28 -39 43 C-39.66 41.68 -40.32 40.36 -41 39 C-41.99 39.495 -41.99 39.495 -43 40 C-43.33 38.02 -43.66 36.04 -44 34 C-44.99 34 -45.98 34 -47 34 C-45.66667905 30.00003714 -43.5042173 29.16217663 -40 27 C-39.34 28.98 -38.68 30.96 -38 33 C-37.34 33 -36.68 33 -36 33 C-36 32.34 -36 31.68 -36 31 C-36.99 31 -37.98 31 -39 31 C-38.67 29.68 -38.34 28.36 -38 27 C-35.36 27.66 -32.72 28.32 -30 29 C-30 27.68 -30 26.36 -30 25 C-28.35 24.67 -26.7 24.34 -25 24 C-26.32 23.67 -27.64 23.34 -29 23 C-29 22.01 -29 21.02 -29 20 C-27.68 19.34 -26.36 18.68 -25 18 C-25.721875 17.855625 -26.44375 17.71125 -27.1875 17.5625 C-29.79166667 17.04166667 -32.39583333 16.52083333 -35 16 C-34.34 15.67 -33.68 15.34 -33 15 C-33 14.34 -33 13.68 -33 13 C-31.68 13 -30.36 13 -29 13 C-29 12.34 -29 11.68 -29 11 C-27.68 11 -26.36 11 -25 11 C-25.495 10.608125 -25.99 10.21625 -26.5 9.8125 C-28.45593143 7.44908285 -28.24207973 5.98564997 -28 3 C-21.47692308 2.63076923 -21.47692308 2.63076923 -19.0625 4.5 C-18.711875 4.995 -18.36125 5.49 -18 6 C-17.21625 5.505 -16.4325 5.01 -15.625 4.5 C-13 3 -13 3 -11 3 C-11 3.66 -11 4.32 -11 5 C-5.555 4.01 -5.555 4.01 0 3 C0 2.01 0 1.02 0 0 Z " fill="#0E5139" transform="translate(165,93)"/>
<path d="M0 0 C0.66 0 1.32 0 2 0 C2 0.66 2 1.32 2 2 C3.32 1.67 4.64 1.34 6 1 C6 1.99 6 2.98 6 4 C5.34 4 4.68 4 4 4 C3.34 6.97 2.68 9.94 2 13 C2.99 12.67 3.98 12.34 5 12 C5.66 12.33 6.32 12.66 7 13 C7 13.66 7 14.32 7 15 C10.465 14.505 10.465 14.505 14 14 C13.51421457 17.12290635 13.0013988 19.99580359 12 23 C13.36125 22.9690625 13.36125 22.9690625 14.75 22.9375 C17.45055394 22.98943373 19.42786945 23.35696736 22 24 C22.66 23.67 23.32 23.34 24 23 C24 22.34 24 21.68 24 21 C23.0925 21.20625 22.185 21.4125 21.25 21.625 C17.88972103 22.0127245 16.75924185 21.80411967 14 20 C14.66 19.01 15.32 18.02 16 17 C16.99 17 17.98 17 19 17 C19 18.32 19 19.64 19 21 C21.31 20.67 23.62 20.34 26 20 C26.495 21.98 26.495 21.98 27 24 C26.01 24 25.02 24 24 24 C24 24.66 24 25.32 24 26 C24.99 26.33 25.98 26.66 27 27 C26.34 27 25.68 27 25 27 C25 27.99 25 28.98 25 30 C26.051875 29.67 27.10375 29.34 28.1875 29 C31.38873357 28.16033218 33.7411008 27.80249096 37 28 C36.505 29.485 36.505 29.485 36 31 C36.99 30.67 37.98 30.34 39 30 C38.34 31.65 37.68 33.3 37 35 C37.66 35.66 38.32 36.32 39 37 C35.535 37.495 35.535 37.495 32 38 C32 37.34 32 36.68 32 36 C31.34 36 30.68 36 30 36 C30 36.99 30 37.98 30 39 C28.02 39 26.04 39 24 39 C24 38.34 24 37.68 24 37 C22.68 37 21.36 37 20 37 C21.15173355 39.46800047 22.04783565 41.04783565 24 43 C20.72108075 44.63945963 17.09386466 44.12030178 13.4921875 44.09765625 C12.23125778 44.09553383 12.23125778 44.09553383 10.94485474 44.09336853 C8.25486725 44.08776237 5.56496241 44.07520886 2.875 44.0625 C1.05338662 44.05748579 -0.76822807 44.05292275 -2.58984375 44.04882812 C-7.05992777 44.03779094 -11.52994986 44.0205222 -16 44 C-15.505 41.03 -15.505 41.03 -15 38 C-15.66 38 -16.32 38 -17 38 C-17 37.01 -17 36.02 -17 35 C-18.32 34.67 -19.64 34.34 -21 34 C-20.814375 33.360625 -20.62875 32.72125 -20.4375 32.0625 C-20.04181671 29.292717 -20.12310345 27.47415098 -20.5 24.75 C-21.27012646 18.76901786 -21.40941125 13.11411687 -18 8 C-17.01 8 -16.02 8 -15 8 C-15 8.99 -15 9.98 -15 11 C-11.72226496 10.24849977 -11.72226496 10.24849977 -10 7 C-8.68 7.33 -7.36 7.66 -6 8 C-5.34 6.35 -4.68 4.7 -4 3 C-2.68 3 -1.36 3 0 3 C0 2.01 0 1.02 0 0 Z " fill="#093C28" transform="translate(132,124)"/>
<path d="M0 0 C16.5 0 33 0 50 0 C50 9.9 50 19.8 50 30 C48.02 30.66 46.04 31.32 44 32 C42.23537317 28.91190305 42 27.76687864 42 24 C40.02 23.67 38.04 23.34 36 23 C35.67 23.66 35.34 24.32 35 25 C34.01 25.495 34.01 25.495 33 26 C33 25.34 33 24.68 33 24 C30.69 23.34 28.38 22.68 26 22 C26 22.66 26 23.32 26 24 C25.01 24 24.02 24 23 24 C23 24.99 23 25.98 23 27 C21.68 26.67 20.36 26.34 19 26 C19.41153737 30.97093824 19.79600832 35.44508386 22 40 C21.01 40 20.02 40 19 40 C18.01 42.475 18.01 42.475 17 45 C16.67 45 16.34 45 16 45 C16 42.69 16 40.38 16 38 C15.34 38 14.68 38 14 38 C13.67 38.66 13.34 39.32 13 40 C11.02 40 9.04 40 7 40 C6 37 6 37 6 34 C4.865625 33.855625 3.73125 33.71125 2.5625 33.5625 C-1 33 -1 33 -2 32 C-2.04063832 30.33382885 -2.042721 28.66611905 -2 27 C-0.02 27 1.96 27 4 27 C4.33 26.01 4.66 25.02 5 24 C5.99 24 6.98 24 8 24 C8.33 23.01 8.66 22.02 9 21 C9.99 20.67 10.98 20.34 12 20 C12 18.68 12 17.36 12 16 C11.67 16.99 11.34 17.98 11 19 C8.9375 19.6875 8.9375 19.6875 7 20 C6.67 18.02 6.34 16.04 6 14 C10.75 11 10.75 11 13 11 C13.33 10.01 13.66 9.02 14 8 C15.32 8 16.64 8 18 8 C16.8354799 6.33378575 16.8354799 6.33378575 15 5 C12.34533951 5.23043864 12.34533951 5.23043864 10 6 C9.67 7.32 9.34 8.64 9 10 C7.35 10 5.7 10 4 10 C4.66 9.01 5.32 8.02 6 7 C6.16699232 3.87478167 6.16699232 3.87478167 6 1 C4.02 1.33 2.04 1.66 0 2 C0 1.34 0 0.68 0 0 Z " fill="#0D4F37" transform="translate(250,0)"/>
<path d="M0 0 C2.97 0 5.94 0 9 0 C7.23040879 7.65482259 5.845516 13.13822065 -0.6875 18 C-3.35802248 20.30964106 -3.71241619 21.54899426 -4 25 C-5.32 24.67 -6.64 24.34 -8 24 C-8 27.96 -8 31.92 -8 36 C-7.67 35.01 -7.34 34.02 -7 33 C-6.67 32.01 -6.34 31.02 -6 30 C-4 32 -4 32 -4 35 C-3.01 35.495 -3.01 35.495 -2 36 C-2.928125 36.495 -2.928125 36.495 -3.875 37 C-7.01584125 39.95608588 -7.17558202 42.80920859 -8 47 C-13.445 47.495 -13.445 47.495 -19 48 C-19 46.35 -19 44.7 -19 43 C-19.66 44.32 -20.32 45.64 -21 47 C-21.99 47 -22.98 47 -24 47 C-24.33 47.99 -24.66 48.98 -25 50 C-26.33076989 50.34342449 -27.66431979 50.67619874 -29 51 C-29.66 51.99 -30.32 52.98 -31 54 C-34.125 54.1875 -34.125 54.1875 -37 54 C-37.66 55.32 -38.32 56.64 -39 58 C-41.375 57.6875 -41.375 57.6875 -44 57 C-46 54 -46 54 -46 51 C-45.34 51 -44.68 51 -44 51 C-44 50.34 -44 49.68 -44 49 C-42.02 48.505 -42.02 48.505 -40 48 C-39.67 48.66 -39.34 49.32 -39 50 C-38.01 49.34 -37.02 48.68 -36 48 C-35.41518879 45.11404054 -35.41518879 45.11404054 -35.3125 41.875 C-35.24675781 40.77929688 -35.18101563 39.68359375 -35.11328125 38.5546875 C-35.07589844 37.71164063 -35.03851563 36.86859375 -35 36 C-37.97 36.495 -37.97 36.495 -41 37 C-41.66 35.02 -42.32 33.04 -43 31 C-41.68 31 -40.36 31 -39 31 C-38.67 30.34 -38.34 29.68 -38 29 C-37.34 29.33 -36.68 29.66 -36 30 C-36 29.34 -36 28.68 -36 28 C-36.66 27.67 -37.32 27.34 -38 27 C-31.375 25 -31.375 25 -28 25 C-28 22.03 -28 19.06 -28 16 C-27.030625 15.608125 -26.06125 15.21625 -25.0625 14.8125 C-21.77823609 13.32405113 -21.77823609 13.32405113 -21.125 10.3125 C-21.08375 9.549375 -21.0425 8.78625 -21 8 C-19.39125 8.061875 -19.39125 8.061875 -17.75 8.125 C-14.16522365 8.00550745 -13.00331933 7.60177031 -10 6 C-7.25 5.875 -7.25 5.875 -5 6 C-4.505 6.99 -4.505 6.99 -4 8 C-2.68 8 -1.36 8 0 8 C0 6.68 0 5.36 0 4 C0.66 4 1.32 4 2 4 C2 3.01 2 2.02 2 1 C1.34 0.67 0.68 0.34 0 0 Z " fill="#0F573E" transform="translate(132,48)"/>
<path d="M0 0 C0.66 0 1.32 0 2 0 C2 0.66 2 1.32 2 2 C3.98 1.67 5.96 1.34 8 1 C8.66 1.99 9.32 2.98 10 4 C9.34 4.66 8.68 5.32 8 6 C7.96762013 8.00755181 7.94135557 10.01637087 7.99609375 12.0234375 C8.00030743 14.15555915 7.67414492 15.97756523 7 18 C7.66 18.33 8.32 18.66 9 19 C7.35 19 5.7 19 4 19 C3.67 20.32 3.34 21.64 3 23 C1.35 23 -0.3 23 -2 23 C-2.33 22.01 -2.66 21.02 -3 20 C-5.01508358 19.26676204 -5.01508358 19.26676204 -7 19 C-7 19.66 -7 20.32 -7 21 C-6.34 21 -5.68 21 -5 21 C-5 21.66 -5 22.32 -5 23 C-5.99 23.66 -6.98 24.32 -8 25 C-8.80336113 27.87759068 -8.80336113 27.87759068 -9.1875 31.125 C-9.42533203 32.76855469 -9.42533203 32.76855469 -9.66796875 34.4453125 C-9.83232422 35.70988281 -9.83232422 35.70988281 -10 37 C-14.95 35.515 -14.95 35.515 -20 34 C-20 34.66 -20 35.32 -20 36 C-19.01 36 -18.02 36 -17 36 C-17 36.99 -17 37.98 -17 39 C-16.01 39 -15.02 39 -14 39 C-14 39.99 -14 40.98 -14 42 C-13.34 42 -12.68 42 -12 42 C-12 42.66 -12 43.32 -12 44 C-13.65 43.67 -15.3 43.34 -17 43 C-16.979375 43.94875 -16.95875 44.8975 -16.9375 45.875 C-17 49 -17 49 -18 51 C-20.3140622 51.73075648 -22.64828869 52.40138258 -25 53 C-25.33 50.03 -25.66 47.06 -26 44 C-25.34 44 -24.68 44 -24 44 C-23.814375 42.576875 -23.814375 42.576875 -23.625 41.125 C-23 38 -23 38 -21 36 C-22.65 36 -24.3 36 -26 36 C-24.125 28.25 -24.125 28.25 -23 26 C-20.9375 24.875 -20.9375 24.875 -19 24 C-19.66 23.34 -20.32 22.68 -21 22 C-21.99 22 -22.98 22 -24 22 C-24 21.34 -24 20.68 -24 20 C-24.66 19.67 -25.32 19.34 -26 19 C-25.01 18.67 -24.02 18.34 -23 18 C-22.855625 17.21625 -22.71125 16.4325 -22.5625 15.625 C-22 13 -22 13 -21 11 C-18.13275314 11.57344937 -17.1385485 11.8614515 -15 14 C-14.608125 12.906875 -14.21625 11.81375 -13.8125 10.6875 C-12.2274876 7.03091324 -10.7378086 5.61405372 -7 4 C-4.68308546 3.27833809 -2.35151077 2.59940471 0 2 C0 1.34 0 0.68 0 0 Z " fill="#0E523A" transform="translate(88,52)"/>
<path d="M0 0 C0.99 0.33 1.98 0.66 3 1 C2.67 1.99 2.34 2.98 2 4 C2.39397335 6.63804589 2.39397335 6.63804589 3 9 C5.31 8.34 7.62 7.68 10 7 C9.91291962 9.10494301 9.80474307 11.20902142 9.6875 13.3125 C9.60048828 15.07013672 9.60048828 15.07013672 9.51171875 16.86328125 C8.98395232 20.0983686 8.57619276 21.08684881 6 23 C5.01 22.34 4.02 21.68 3 21 C2.01 21 1.02 21 0 21 C-0.28875 21.78375 -0.5775 22.5675 -0.875 23.375 C-2 26 -2 26 -4 28 C-5.32 28 -6.64 28 -8 28 C-8 28.99 -8 29.98 -8 31 C-9.32 31.33 -10.64 31.66 -12 32 C-12 31.34 -12 30.68 -12 30 C-14.64 30 -17.28 30 -20 30 C-20.22174933 31.45635371 -20.42698698 32.91522956 -20.625 34.375 C-20.74101563 35.18710938 -20.85703125 35.99921875 -20.9765625 36.8359375 C-20.98429687 37.55007812 -20.99203125 38.26421875 -21 39 C-20.34 39.66 -19.68 40.32 -19 41 C-20.32 41 -21.64 41 -23 41 C-22.67 39.35 -22.34 37.7 -22 36 C-22.99 36 -23.98 36 -25 36 C-25.33 35.34 -25.66 34.68 -26 34 C-26.721875 34.495 -27.44375 34.99 -28.1875 35.5 C-31.14848659 37.07919285 -32.71253029 37.28178312 -36 37 C-36.495 35.515 -36.495 35.515 -37 34 C-36.2575 33.855625 -35.515 33.71125 -34.75 33.5625 C-32.47972261 33.09812508 -30.24240521 32.58136431 -28 32 C-28 30.68 -28 29.36 -28 28 C-27.34 28 -26.68 28 -26 28 C-26.71563266 25.9837767 -26.71563266 25.9837767 -28 24 C-30.05000871 23.19471111 -30.05000871 23.19471111 -32 23 C-32 22.34 -32 21.68 -32 21 C-31.38125 20.938125 -30.7625 20.87625 -30.125 20.8125 C-27.76553562 20.18789421 -27.76553562 20.18789421 -26.875 17.6875 C-26.58625 16.800625 -26.2975 15.91375 -26 15 C-25.34786461 13.65949948 -24.68620031 12.32338632 -24 11 C-23.01 11.33 -22.02 11.66 -21 12 C-21.90543849 14.71631546 -22.92474806 17.34771188 -24 20 C-24.66 20 -25.32 20 -26 20 C-25.67 22.97 -25.34 25.94 -25 29 C-23.68 28.34 -22.36 27.68 -21 27 C-20.01 27 -19.02 27 -18 27 C-18 23.37 -18 19.74 -18 16 C-17.67 16.99 -17.34 17.98 -17 19 C-15.35 19.33 -13.7 19.66 -12 20 C-12 19.34 -12 18.68 -12 18 C-12.66 18 -13.32 18 -14 18 C-14 17.01 -14 16.02 -14 15 C-14.99 15 -15.98 15 -17 15 C-17 14.01 -17 13.02 -17 12 C-17.99 12 -18.98 12 -20 12 C-20 11.34 -20 10.68 -20 10 C-17.03 10.66 -14.06 11.32 -11 12 C-10.608125 10.72125 -10.21625 9.4425 -9.8125 8.125 C-8.35208541 4.19364697 -8.35208541 4.19364697 -5.5 2.625 C-4.675 2.41875 -3.85 2.2125 -3 2 C-2.01 1.34 -1.02 0.68 0 0 Z " fill="#0E5038" transform="translate(88,76)"/>
<path d="M0 0 C4.21191897 7.70964299 5.43322701 16.33545974 5 25 C5.66 25.33 6.32 25.66 7 26 C6.34 26 5.68 26 5 26 C5 27.32 5 28.64 5 30 C5.99 30.33 6.98 30.66 8 31 C8 31.99 8 32.98 8 34 C8.66 34 9.32 34 10 34 C9.67 35.98 9.34 37.96 9 40 C3.72 40 -1.56 40 -7 40 C-6.01 39.505 -6.01 39.505 -5 39 C-5 38.01 -5 37.02 -5 36 C-4.34 36 -3.68 36 -3 36 C-3 34.02 -3 32.04 -3 30 C-7.84241633 28.66416101 -11.93437617 27.74671881 -17 28 C-17.33 26.68 -17.66 25.36 -18 24 C-19.98 24 -21.96 24 -24 24 C-24 22.02 -24 20.04 -24 18 C-23.01 17.67 -22.02 17.34 -21 17 C-21.33 18.65 -21.66 20.3 -22 22 C-21.34 21.67 -20.68 21.34 -20 21 C-20 19.35 -20 17.7 -20 16 C-18.68 16 -17.36 16 -16 16 C-15.67 15.34 -15.34 14.68 -15 14 C-13.68 14.66 -12.36 15.32 -11 16 C-11.185625 15.05125 -11.37125 14.1025 -11.5625 13.125 C-12 10 -12 10 -11 8 C-8.9375 7.375 -8.9375 7.375 -7 7 C-7 5.68 -7 4.36 -7 3 C-5.5459375 2.5359375 -5.5459375 2.5359375 -4.0625 2.0625 C-1.15934208 1.30476658 -1.15934208 1.30476658 0 0 Z " fill="#0F5239" transform="translate(107,128)"/>
<path d="M0 0 C0 18.81 0 37.62 0 57 C-4.29 57 -8.58 57 -13 57 C-11.4375 54.41210938 -11.4375 54.41210938 -9.875 51.82421875 C-8.78376001 49.88638074 -8.78376001 49.88638074 -9 47 C-9.680625 46.46375 -10.36125 45.9275 -11.0625 45.375 C-13 43 -13 43 -13.04296875 40.7421875 C-12.77606096 38.47169189 -12.44090234 36.24285103 -12 34 C-12.66 34 -13.32 34 -14 34 C-14 33.01 -14 32.02 -14 31 C-14.66 30.67 -15.32 30.34 -16 30 C-15.01 30 -14.02 30 -13 30 C-13.29003906 29.13761719 -13.29003906 29.13761719 -13.5859375 28.2578125 C-14.07576086 25.5868889 -13.65453482 24.35910695 -12.625 21.875 C-12.34914063 21.19179687 -12.07328125 20.50859375 -11.7890625 19.8046875 C-11.22762922 18.52061734 -10.62674453 17.25348905 -10 16 C-9.01 15.67 -8.02 15.34 -7 15 C-6.67 14.34 -6.34 13.68 -6 13 C-6.66 12.67 -7.32 12.34 -8 12 C-6.68 11.34 -5.36 10.68 -4 10 C-4 7.03 -4 4.06 -4 1 C-1 0 -1 0 0 0 Z " fill="#135E44" transform="translate(300,111)"/>
<path d="M0 0 C2.97 0 5.94 0 9 0 C8 4 8 4 7 7 C7.66 7.33 8.32 7.66 9 8 C8.01 8 7.02 8 6 8 C6 7.34 6 6.68 6 6 C3.03 5.505 3.03 5.505 0 5 C0 3.35 0 1.7 0 0 Z M-1 5 C-0.38125 5.495 0.2375 5.99 0.875 6.5 C2.83880904 8.19222773 2.83880904 8.19222773 5 8 C4.67 11.3 4.34 14.6 4 18 C4.33 16.35 4.66 14.7 5 13 C6.32 14.65 7.64 16.3 9 18 C8.34 18.66 7.68 19.32 7 20 C6.01 20 5.02 20 4 20 C4 21.32 4 22.64 4 24 C3.34 24 2.68 24 2 24 C2 26.64 2 29.28 2 32 C0.88625 32.37125 -0.2275 32.7425 -1.375 33.125 C-3.33221486 33.8762704 -3.33221486 33.8762704 -5 35 C-6.21284876 38.05429073 -6.21284876 38.05429073 -7 41 C-9.125 41.875 -9.125 41.875 -11 42 C-10.67 41.01 -10.34 40.02 -10 39 C-9.34 39 -8.68 39 -8 39 C-8 38.01 -8 37.02 -8 36 C-8.66 36 -9.32 36 -10 36 C-10.66 37.32 -11.32 38.64 -12 40 C-12.66 40 -13.32 40 -14 40 C-15.16063604 35.74433453 -14.76173392 32.3164922 -14 28 C-15.98 28.33 -17.96 28.66 -20 29 C-20.66 27.02 -21.32 25.04 -22 23 C-20.68 23 -19.36 23 -18 23 C-17.67 22.34 -17.34 21.68 -17 21 C-16.34 21.33 -15.68 21.66 -15 22 C-15 21.34 -15 20.68 -15 20 C-15.66 19.67 -16.32 19.34 -17 19 C-10.375 17 -10.375 17 -7 17 C-7 14.03 -7 11.06 -7 8 C-5.02 7.01 -3.04 6.02 -1 5 Z " fill="#135E44" transform="translate(111,56)"/>
<path d="M0 0 C3.0625 0.125 3.0625 0.125 5.0625 1.125 C4.7325 4.095 4.4025 7.065 4.0625 10.125 C4.7225 10.455 5.3825 10.785 6.0625 11.125 C6.0625 11.785 6.0625 12.445 6.0625 13.125 C4.7425 13.125 3.4225 13.125 2.0625 13.125 C2.0625 14.775 2.0625 16.425 2.0625 18.125 C3.74107326 17.00595116 5.40479875 15.85999451 7 14.625 C8.95610503 13.20237816 10.87347027 12.14133523 13.0625 11.125 C15.0625 13.125 15.0625 13.125 16.0625 15.125 C15.7325 15.785 15.4025 16.445 15.0625 17.125 C19.20920039 14.74870911 19.20920039 14.74870911 22.0625 11.125 C23.3825 11.455 24.7025 11.785 26.0625 12.125 C26.0625 13.115 26.0625 14.105 26.0625 15.125 C25.27875 15.2075 24.495 15.29 23.6875 15.375 C20.91500896 15.85306339 20.91500896 15.85306339 19.75 18.1875 C19.523125 18.826875 19.29625 19.46625 19.0625 20.125 C18.0725 20.125 17.0825 20.125 16.0625 20.125 C16.0625 19.465 16.0625 18.805 16.0625 18.125 C14.0825 18.785 12.1025 19.445 10.0625 20.125 C9.7325 19.465 9.4025 18.805 9.0625 18.125 C9.18625 19.5171875 9.18625 19.5171875 9.3125 20.9375 C9.0625 24.125 9.0625 24.125 7.4375 26 C4.49612303 27.39328383 2.27916704 27.34431821 -0.9375 27.125 C-1.2675 28.115 -1.5975 29.105 -1.9375 30.125 C-1.9375 29.135 -1.9375 28.145 -1.9375 27.125 C-3.9175 27.785 -5.8975 28.445 -7.9375 29.125 C-7.9375 20.875 -7.9375 12.625 -7.9375 4.125 C-6.9475 4.125 -5.9575 4.125 -4.9375 4.125 C-4.6075 3.135 -4.2775 2.145 -3.9375 1.125 C-2.9375 0.125 -2.9375 0.125 0 0 Z " fill="#0D4932" transform="translate(7.9375,94.875)"/>
<path d="M0 0 C0.66 0 1.32 0 2 0 C2 0.99 2 1.98 2 3 C5.465 2.505 5.465 2.505 9 2 C8.525625 2.7425 8.05125 3.485 7.5625 4.25 C6.19744705 6.65249319 5.61416402 8.36786847 5 11 C3.66666667 13 2.33333333 15 1 17 C1 15.35 1 13.7 1 12 C0.34 12 -0.32 12 -1 12 C-1 11.34 -1 10.68 -1 10 C-2.98 10.99 -2.98 10.99 -5 12 C-4.01 13.32 -3.02 14.64 -2 16 C-2.66 16.99 -3.32 17.98 -4 19 C-4.165 20.175625 -4.33 21.35125 -4.5 22.5625 C-5 26 -5 26 -7 28 C-10.125 28.125 -10.125 28.125 -13 28 C-13 28.66 -13 29.32 -13 30 C-12.34 30 -11.68 30 -11 30 C-11.66 31.32 -12.32 32.64 -13 34 C-12.34 34.33 -11.68 34.66 -11 35 C-11.33 35.99 -11.66 36.98 -12 38 C-15 38 -18 38 -21 38 C-21 36.68 -21 35.36 -21 34 C-19.35 34.33 -17.7 34.66 -16 35 C-16.37125 33.88625 -16.37125 33.88625 -16.75 32.75 C-17 30 -17 30 -15.1875 27.75 C-13 26 -13 26 -11 25 C-11.66 24.34 -12.32 23.68 -13 23 C-13 21.68 -13 20.36 -13 19 C-14.32 19 -15.64 19 -17 19 C-19.36924875 16.54300129 -20.40339753 14.34097385 -21 11 C-21.99 11 -22.98 11 -24 11 C-24 10.01 -24 9.02 -24 8 C-20.37 8 -16.74 8 -13 8 C-13 7.34 -13 6.68 -13 6 C-11.39743892 5.49487756 -9.79288208 4.99608373 -8.1875 4.5 C-7.29417969 4.2215625 -6.40085938 3.943125 -5.48046875 3.65625 C-3 3 -3 3 0 3 C0 2.01 0 1.02 0 0 Z " fill="#16674D" transform="translate(165,93)"/>
<path d="M0 0 C2 2 2 2 2 5 C1.34 5 0.68 5 0 5 C0 5.66 0 6.32 0 7 C-0.99 7.33 -1.98 7.66 -3 8 C-3.33 8.66 -3.66 9.32 -4 10 C-2.02 9.34 -0.04 8.68 2 8 C2 8.99 2 9.98 2 11 C2.66 11.66 3.32 12.32 4 13 C3.01 13 2.02 13 1 13 C1 13.99 1 14.98 1 16 C-0.32 15.67 -1.64 15.34 -3 15 C-2.58846263 19.97093824 -2.20399168 24.44508386 0 29 C-0.99 29 -1.98 29 -3 29 C-3.99 31.475 -3.99 31.475 -5 34 C-5.33 34 -5.66 34 -6 34 C-6 31.69 -6 29.38 -6 27 C-6.66 27 -7.32 27 -8 27 C-8.33 27.66 -8.66 28.32 -9 29 C-10.98 29 -12.96 29 -15 29 C-16 26 -16 26 -16 23 C-17.134375 22.855625 -18.26875 22.71125 -19.4375 22.5625 C-23 22 -23 22 -24 21 C-24.04063832 19.33382885 -24.042721 17.66611905 -24 16 C-22.02 16 -20.04 16 -18 16 C-17.67 15.01 -17.34 14.02 -17 13 C-16.01 13 -15.02 13 -14 13 C-13.67 12.01 -13.34 11.02 -13 10 C-12.01 9.67 -11.02 9.34 -10 9 C-8.77030122 5.48809191 -8.77030122 5.48809191 -8 2 C-5.36 2 -2.72 2 0 2 C0 1.34 0 0.68 0 0 Z " fill="#105940" transform="translate(272,11)"/>
<path d="M0 0 C0.66 0 1.32 0 2 0 C3.4606285 2.64738916 4 3.89448334 4 7 C4.66 7.33 5.32 7.66 6 8 C5.34 8 4.68 8 4 8 C4.185625 9.03125 4.37125 10.0625 4.5625 11.125 C4.98069928 14.82905076 4.67904755 17.37841305 4 21 C3.96237049 23.33302989 3.95334266 25.66713319 4 28 C3.34 28.33 2.68 28.66 2 29 C2.66 29.33 3.32 29.66 4 30 C3.67 30.99 3.34 31.98 3 33 C0.69 32.34 -1.62 31.68 -4 31 C-4 30.34 -4 29.68 -4 29 C-7.96 29.495 -7.96 29.495 -12 30 C-12 31.32 -12 32.64 -12 34 C-11.34 34.33 -10.68 34.66 -10 35 C-10.99 35 -11.98 35 -13 35 C-13 34.01 -13 33.02 -13 32 C-13.66 32 -14.32 32 -15 32 C-15.33 32.66 -15.66 33.32 -16 34 C-16.66 33.34 -17.32 32.68 -18 32 C-18 31.01 -18 30.02 -18 29 C-16 28 -16 28 -13 28 C-12.67 27.01 -12.34 26.02 -12 25 C-11.34 25 -10.68 25 -10 25 C-10 25.66 -10 26.32 -10 27 C-9.34 27 -8.68 27 -8 27 C-8.309375 26.278125 -8.61875 25.55625 -8.9375 24.8125 C-9.92560539 22.19692691 -10.5287754 19.74881018 -11 17 C-12.32 17 -13.64 17 -15 17 C-14.8125 15.125 -14.8125 15.125 -14 13 C-11.625 11.6875 -11.625 11.6875 -9 11 C-8.01 11.33 -7.02 11.66 -6 12 C-6 12.99 -6 13.98 -6 15 C-5.01 14.34 -4.02 13.68 -3 13 C-3.185625 11.88625 -3.37125 10.7725 -3.5625 9.625 C-4 6 -4 6 -3 4 C-2.34 4 -1.68 4 -1 4 C-0.67 2.68 -0.34 1.36 0 0 Z " fill="#0E5139" transform="translate(180,61)"/>
<path d="M0 0 C6.93 0 13.86 0 21 0 C21 4.29 21 8.58 21 13 C15.86273047 16.10939998 10.95428051 17.19691321 5 17 C2.38118076 16.2697076 0.40912041 15.30930457 -2 14 C-1.67 12.02 -1.34 10.04 -1 8 C-1.99 7.67 -2.98 7.34 -4 7 C-3.01 7 -2.02 7 -1 7 C-1 6.34 -1 5.68 -1 5 C-1.66 4.67 -2.32 4.34 -3 4 C-2.01 3.67 -1.02 3.34 0 3 C0 2.01 0 1.02 0 0 Z " fill="#073C28" transform="translate(279,0)"/>
<path d="M0 0 C2.64 0 5.28 0 8 0 C8 0.99 8 1.98 8 3 C7.34 3 6.68 3 6 3 C5.7834375 3.928125 5.7834375 3.928125 5.5625 4.875 C5 7 5 7 4 9 C4.66 9 5.32 9 6 9 C6 9.66 6 10.32 6 11 C5.01 11.66 4.02 12.32 3 13 C2.19663887 15.87759068 2.19663887 15.87759068 1.8125 19.125 C1.57466797 20.76855469 1.57466797 20.76855469 1.33203125 22.4453125 C1.16767578 23.70988281 1.16767578 23.70988281 1 25 C-2.3 24.01 -5.6 23.02 -9 22 C-9 22.66 -9 23.32 -9 24 C-8.01 24 -7.02 24 -6 24 C-6 24.99 -6 25.98 -6 27 C-5.01 27 -4.02 27 -3 27 C-3 27.99 -3 28.98 -3 30 C-2.34 30 -1.68 30 -1 30 C-1 30.66 -1 31.32 -1 32 C-2.65 31.67 -4.3 31.34 -6 31 C-5.979375 31.94875 -5.95875 32.8975 -5.9375 33.875 C-6 37 -6 37 -7 39 C-9.3140622 39.73075648 -11.64828869 40.40138258 -14 41 C-14.33 38.03 -14.66 35.06 -15 32 C-14.34 32 -13.68 32 -13 32 C-12.87625 31.05125 -12.7525 30.1025 -12.625 29.125 C-12 26 -12 26 -10 24 C-11.65 24 -13.3 24 -15 24 C-13.125 16.25 -13.125 16.25 -12 14 C-9.9375 13.375 -9.9375 13.375 -8 13 C-8.33 14.32 -8.66 15.64 -9 17 C-7.68 17 -6.36 17 -5 17 C-5.66 16.34 -6.32 15.68 -7 15 C-6.34 15 -5.68 15 -5 15 C-5 14.34 -5 13.68 -5 13 C-4.01 12.34 -3.02 11.68 -2 11 C-1.74969023 8.41619823 -1.74969023 8.41619823 -2 6 C-1.34 6 -0.68 6 0 6 C0 6.66 0 7.32 0 8 C0.99 8 1.98 8 3 8 C3 6.35 3 4.7 3 3 C2.67 3.66 2.34 4.32 2 5 C1.34 5 0.68 5 0 5 C0 3.35 0 1.7 0 0 Z " fill="#0F563D" transform="translate(77,64)"/>
<path d="M0 0 C0.66 0 1.32 0 2 0 C2 0.66 2 1.32 2 2 C3.32 1.67 4.64 1.34 6 1 C6 1.99 6 2.98 6 4 C5.34 4 4.68 4 4 4 C3.34 6.97 2.68 9.94 2 13 C2.99 12.67 3.98 12.34 5 12 C5.66 12.33 6.32 12.66 7 13 C7 13.66 7 14.32 7 15 C10.465 14.505 10.465 14.505 14 14 C13.51421457 17.12290635 13.0013988 19.99580359 12 23 C13.36125 22.9690625 13.36125 22.9690625 14.75 22.9375 C17.45055394 22.98943373 19.42786945 23.35696736 22 24 C22.66 23.67 23.32 23.34 24 23 C24 22.34 24 21.68 24 21 C23.0925 21.20625 22.185 21.4125 21.25 21.625 C17.88972103 22.0127245 16.75924185 21.80411967 14 20 C14.66 19.01 15.32 18.02 16 17 C16.99 17 17.98 17 19 17 C19 18.32 19 19.64 19 21 C22.465 20.505 22.465 20.505 26 20 C26.33 21.32 26.66 22.64 27 24 C26.01 24 25.02 24 24 24 C24 24.66 24 25.32 24 26 C24.99 26.33 25.98 26.66 27 27 C24.69 27.66 22.38 28.32 20 29 C20 29.99 20 30.98 20 32 C18.68 32 17.36 32 16 32 C16 31.01 16 30.02 16 29 C14.72125 28.855625 13.4425 28.71125 12.125 28.5625 C9.74307106 28.29357254 8.15547309 28.07773654 6 27 C6 26.34 6 25.68 6 25 C5.01 24.67 4.02 24.34 3 24 C2.67 21.03 2.34 18.06 2 15 C1.34 16.32 0.68 17.64 0 19 C-1 18 -1 18 -1.0625 14.9375 C-1.041875 13.968125 -1.02125 12.99875 -1 12 C-1.66 12 -2.32 12 -3 12 C-3 10.35 -3 8.7 -3 7 C-3.66 7 -4.32 7 -5 7 C-4.67 5.68 -4.34 4.36 -4 3 C-2.68 3 -1.36 3 0 3 C0 2.01 0 1.02 0 0 Z " fill="#0C4731" transform="translate(132,124)"/>
<path d="M0 0 C6.52307692 -0.36923077 6.52307692 -0.36923077 8.9375 1.5 C9.288125 1.995 9.63875 2.49 10 3 C10.78375 2.505 11.5675 2.01 12.375 1.5 C15 0 15 0 17 0 C17 0.99 17 1.98 17 3 C16.34 3 15.68 3 15 3 C15 3.66 15 4.32 15 5 C10.98195309 5.84098656 7.98196457 6.05404945 4 5 C4 5.99 4 6.98 4 8 C5.32 7.67 6.64 7.34 8 7 C8.226875 8.11375 8.45375 9.2275 8.6875 10.375 C9.120625 11.57125 9.55375 12.7675 10 14 C11.65204456 14.70211894 13.31923769 15.36971413 15 16 C16.3125 19.125 16.3125 19.125 17 22 C15.68 22 14.36 22 13 22 C13 22.66 13 23.32 13 24 C12.34 24 11.68 24 11 24 C11 24.99 11 25.98 11 27 C9.68 26.67 8.36 26.34 7 26 C7 25.34 7 24.68 7 24 C6.34 24 5.68 24 5 24 C4.67 24.99 4.34 25.98 4 27 C-0.66666667 27 -5.33333333 27 -10 27 C-9.67 26.34 -9.34 25.68 -9 25 C-6.69 25.33 -4.38 25.66 -2 26 C-2 24.68 -2 23.36 -2 22 C-0.35 21.67 1.3 21.34 3 21 C1.68 20.67 0.36 20.34 -1 20 C-1 19.01 -1 18.02 -1 17 C0.32 16.34 1.64 15.68 3 15 C2.278125 14.855625 1.55625 14.71125 0.8125 14.5625 C-3.09375 13.78125 -3.09375 13.78125 -7 13 C-6.34 12.67 -5.68 12.34 -5 12 C-5 11.34 -5 10.68 -5 10 C-3.68 10 -2.36 10 -1 10 C-1 9.34 -1 8.68 -1 8 C0.32 8 1.64 8 3 8 C2.2575 7.4121875 2.2575 7.4121875 1.5 6.8125 C-0.45593143 4.44908285 -0.24207973 2.98564997 0 0 Z " fill="#125A41" transform="translate(137,96)"/>
<path d="M0 0 C1.79041248 3.23831126 2.73750239 6.41415108 3.625 10 C4.01558594 11.546875 4.01558594 11.546875 4.4140625 13.125 C5 16 5 16 5 20 C4.34 20 3.68 20 3 20 C3 19.01 3 18.02 3 17 C1.68 17 0.36 17 -1 17 C-1 16.01 -1 15.02 -1 14 C-2.33765163 16.93638448 -2.33765163 16.93638448 -1 19.5 C0 22 0 22 -1 25 C-2.65 24.67 -4.3 24.34 -6 24 C-6.33 24.66 -6.66 25.32 -7 26 C-10 24 -10 24 -10.765625 21.828125 C-11.6862755 16.92788845 -12.29611043 12.92521964 -11 8 C-9.68 7.67 -8.36 7.34 -7 7 C-7 5.68 -7 4.36 -7 3 C-5.5459375 2.5359375 -5.5459375 2.5359375 -4.0625 2.0625 C-1.15934208 1.30476658 -1.15934208 1.30476658 0 0 Z " fill="#0A4B33" transform="translate(107,128)"/>
<path d="M0 0 C2.31 0.33 4.62 0.66 7 1 C6.67 1.99 6.34 2.98 6 4 C6 4.99 6 5.98 6 7 C6 9.33333333 6 11.66666667 6 14 C5.2575 13.835 4.515 13.67 3.75 13.5 C0.80993422 12.88074304 0.80993422 12.88074304 -3 13 C-3.66 13 -4.32 13 -5 13 C-5.226875 13.61875 -5.45375 14.2375 -5.6875 14.875 C-7.40554645 17.65659901 -8.90995099 18.09559541 -12 19 C-12.99 19 -13.98 19 -15 19 C-15.66 18.34 -16.32 17.68 -17 17 C-20.08347826 16.83318891 -20.08347826 16.83318891 -23 17 C-22.57847656 16.54109375 -22.15695313 16.0821875 -21.72265625 15.609375 C-20.90087891 14.68898438 -20.90087891 14.68898438 -20.0625 13.75 C-19.51722656 13.14671875 -18.97195312 12.5434375 -18.41015625 11.921875 C-16.93787201 9.91532695 -16.42470811 8.42997551 -16 6 C-15.01 6 -14.02 6 -13 6 C-13 6.99 -13 7.98 -13 9 C-12.05125 8.814375 -11.1025 8.62875 -10.125 8.4375 C-7 8 -7 8 -5 9 C-5 7.35 -5 5.7 -5 4 C-3.68 4 -2.36 4 -1 4 C-0.67 2.68 -0.34 1.36 0 0 Z M2 7 C2.33 7.66 2.66 8.32 3 9 C3.33 8.34 3.66 7.68 4 7 C3.34 7 2.68 7 2 7 Z " fill="#0E4933" transform="translate(42,55)"/>
<path d="M0 0 C0.99 1.32 1.98 2.64 3 4 C2.34 4.66 1.68 5.32 1 6 C1.33 6.99 1.66 7.98 2 9 C1.67 9.66 1.34 10.32 1 11 C2.98 11.66 4.96 12.32 7 13 C6.25 14.9375 6.25 14.9375 5 17 C2.875 17.75 2.875 17.75 1 18 C1.33 17.01 1.66 16.02 2 15 C1.01 15 0.02 15 -1 15 C-1 16.98 -1 18.96 -1 21 C-1.66 20.34 -2.32 19.68 -3 19 C-6.08347826 18.83318891 -6.08347826 18.83318891 -9 19 C-9 18.01 -9 17.02 -9 16 C-10.32 16.33 -11.64 16.66 -13 17 C-13.103125 16.360625 -13.20625 15.72125 -13.3125 15.0625 C-13.539375 14.381875 -13.76625 13.70125 -14 13 C-14.99 12.67 -15.98 12.34 -17 12 C-15.56967163 10.82455195 -14.13046758 9.65989738 -12.6875 8.5 C-11.88699219 7.8503125 -11.08648437 7.200625 -10.26171875 6.53125 C-8 5 -8 5 -5 5 C-4.67 4.01 -4.34 3.02 -4 2 C-1.9375 0.8125 -1.9375 0.8125 0 0 Z " fill="#093320" transform="translate(30,125)"/>
<path d="M0 0 C6.75 -0.125 6.75 -0.125 9 1 C9 1.66 9 2.32 9 3 C10.32 3 11.64 3 13 3 C13.33 2.01 13.66 1.02 14 0 C14.66 0.33 15.32 0.66 16 1 C15.67 3.31 15.34 5.62 15 8 C16.98 7.67 18.96 7.34 21 7 C21 7.99 21 8.98 21 10 C18.69 10.33 16.38 10.66 14 11 C16.97 11.495 16.97 11.495 20 12 C20 12.33 20 12.66 20 13 C18.25360243 13.39143394 16.50264082 13.76254287 14.75 14.125 C13.77546875 14.33382812 12.8009375 14.54265625 11.796875 14.7578125 C8.76557234 15.0202996 7.51982654 14.61988849 5 13 C5 12.34 5 11.68 5 11 C-1.435 11.495 -1.435 11.495 -8 12 C-7.67 11.01 -7.34 10.02 -7 9 C-7.66 9 -8.32 9 -9 9 C-9 8.01 -9 7.02 -9 6 C-4.71 6.33 -0.42 6.66 4 7 C4 6.34 4 5.68 4 5 C1.69 5 -0.62 5 -3 5 C-2.01 4.67 -1.02 4.34 0 4 C0 2.68 0 1.36 0 0 Z " fill="#11583F" transform="translate(259,112)"/>
<path d="M0 0 C0.99 0.33 1.98 0.66 3 1 C3 1.66 3 2.32 3 3 C6.08809695 4.76462683 7.23312136 5 11 5 C10.67 7.64 10.34 10.28 10 13 C10.9075 12.835 11.815 12.67 12.75 12.5 C16 12 16 12 20 12 C20 12.66 20 13.32 20 14 C21.32 14.33 22.64 14.66 24 15 C24 15.99 24 16.98 24 18 C23.34 18 22.68 18 22 18 C22 20.31 22 22.62 22 25 C21.443125 24.360625 20.88625 23.72125 20.3125 23.0625 C17.77933439 20.80319013 16.31658576 20.36850953 13 20 C13 19.34 13 18.68 13 18 C12.01 18 11.02 18 10 18 C8.61328125 16.5390625 8.61328125 16.5390625 7.3125 14.625 C6.65701172 13.68527344 6.65701172 13.68527344 5.98828125 12.7265625 C5 11 5 11 5 9 C4.34 9 3.68 9 3 9 C3 8.34 3 7.68 3 7 C1.68 7 0.36 7 -1 7 C-1 6.01 -1 5.02 -1 4 C-1.66 4 -2.32 4 -3 4 C-3 3.34 -3 2.68 -3 2 C-2.01 1.34 -1.02 0.68 0 0 Z " fill="#104E37" transform="translate(219,116)"/>
<path d="M0 0 C9.57 0 19.14 0 29 0 C29 0.99 29 1.98 29 3 C27.35 3.33 25.7 3.66 24 4 C24 4.66 24 5.32 24 6 C23.34 6 22.68 6 22 6 C22 6.99 22 7.98 22 9 C21.01 9 20.02 9 19 9 C19 8.01 19 7.02 19 6 C15.67465243 4.89155081 13.37817425 5.15545644 10 6 C9.67 7.32 9.34 8.64 9 10 C7.35 10 5.7 10 4 10 C4.66 9.01 5.32 8.02 6 7 C6.16699232 3.87478167 6.16699232 3.87478167 6 1 C4.02 1.33 2.04 1.66 0 2 C0 1.34 0 0.68 0 0 Z " fill="#10563C" transform="translate(250,0)"/>
<path d="M0 0 C0.33 0 0.66 0 1 0 C1 1.65 1 3.3 1 5 C1.99 5 2.98 5 4 5 C3.67 3.35 3.34 1.7 3 0 C4.65 0.33 6.3 0.66 8 1 C9 4 9 4 8.0625 6.1875 C7.711875 6.785625 7.36125 7.38375 7 8 C6.34 8 5.68 8 5 8 C5 8.66 5 9.32 5 10 C5.66 10 6.32 10 7 10 C7 10.66 7 11.32 7 12 C7.99 12.66 8.98 13.32 10 14 C8.43904523 15.56095477 6.90999105 15.16961928 4.75 15.1875 C1.10116672 15.12939756 -1.86733658 15.05581037 -5 13 C-6.12562504 10.14841657 -6.21942548 8.65827645 -5.25 5.75 C-4 4 -4 4 -1 3 C-0.67 2.01 -0.34 1.02 0 0 Z " fill="#105D42" transform="translate(201,19)"/>
<path d="M0 0 C0.66 0 1.32 0 2 0 C1.67 1.32 1.34 2.64 1 4 C1.66 4.33 2.32 4.66 3 5 C2.01 6.485 2.01 6.485 1 8 C1.515625 8.4125 2.03125 8.825 2.5625 9.25 C3.036875 9.8275 3.51125 10.405 4 11 C3.6875 13.1875 3.6875 13.1875 3 15 C1.68 15.33 0.36 15.66 -1 16 C-0.67 14.68 -0.34 13.36 0 12 C-2.31 11.67 -4.62 11.34 -7 11 C-7 11.66 -7 12.32 -7 13 C-7.66 13 -8.32 13 -9 13 C-8.20882096 14.99983534 -8.20882096 14.99983534 -7 17 C-6.01 17.33 -5.02 17.66 -4 18 C-4 18.66 -4 19.32 -4 20 C-5.98 20.66 -7.96 21.32 -10 22 C-10 21.34 -10 20.68 -10 20 C-10.99 20 -11.98 20 -13 20 C-13 16.04 -13 12.08 -13 8 C-12.34 7.67 -11.68 7.34 -11 7 C-10.67 7.99 -10.34 8.98 -10 10 C-9.34 10 -8.68 10 -8 10 C-8 9.34 -8 8.68 -8 8 C-8.99 8.495 -8.99 8.495 -10 9 C-9.67 8.01 -9.34 7.02 -9 6 C-7.35 6 -5.7 6 -4 6 C-4 6.99 -4 7.98 -4 9 C-3.34 9.33 -2.68 9.66 -2 10 C-2.185625 9.05125 -2.37125 8.1025 -2.5625 7.125 C-3 4 -3 4 -2 2 C-1.34 2 -0.68 2 0 2 C0 1.34 0 0.68 0 0 Z " fill="#0D432F" transform="translate(13,129)"/>
<path d="M0 0 C2.475 0.99 2.475 0.99 5 2 C5.1953125 4.01822917 5.390625 6.03645833 5.5859375 8.0546875 C5.86374749 10.22668245 5.86374749 10.22668245 8 12 C4.5980513 14.09350689 1.94727588 14.17942163 -2 14 C-2.33 12.68 -2.66 11.36 -3 10 C-4.98 10 -6.96 10 -9 10 C-9 8.02 -9 6.04 -9 4 C-8.01 3.67 -7.02 3.34 -6 3 C-6.33 4.65 -6.66 6.3 -7 8 C-6.34 7.67 -5.68 7.34 -5 7 C-5 5.35 -5 3.7 -5 2 C-3.68 2 -2.36 2 -1 2 C-0.67 1.34 -0.34 0.68 0 0 Z " fill="#0D5238" transform="translate(92,142)"/>
<path d="M0 0 C2.64 0 5.28 0 8 0 C8 0.99 8 1.98 8 3 C7.34 3 6.68 3 6 3 C5.7834375 3.928125 5.7834375 3.928125 5.5625 4.875 C5 7 5 7 4 9 C4.66 9 5.32 9 6 9 C6 9.66 6 10.32 6 11 C5.01 11.66 4.02 12.32 3 13 C2.19663887 15.87759068 2.19663887 15.87759068 1.8125 19.125 C1.65394531 20.22070312 1.49539062 21.31640625 1.33203125 22.4453125 C1.22246094 23.28835937 1.11289063 24.13140625 1 25 C0.01 24.67 -0.98 24.34 -2 24 C-2.33 22.02 -2.66 20.04 -3 18 C-2.34 18 -1.68 18 -1 18 C-1 17.34 -1 16.68 -1 16 C-1.66 16 -2.32 16 -3 16 C-2.67 12.7 -2.34 9.4 -2 6 C-1.34 6 -0.68 6 0 6 C0 6.66 0 7.32 0 8 C0.99 8 1.98 8 3 8 C3 6.35 3 4.7 3 3 C2.67 3.66 2.34 4.32 2 5 C1.34 5 0.68 5 0 5 C0 3.35 0 1.7 0 0 Z " fill="#105A41" transform="translate(77,64)"/>
<path d="M0 0 C1.65 0.33 3.3 0.66 5 1 C5.66 3.31 6.32 5.62 7 8 C7.99 8 8.98 8 10 8 C10 6.35 10 4.7 10 3 C10.66 2.67 11.32 2.34 12 2 C12.12375 2.804375 12.2475 3.60875 12.375 4.4375 C12.58125 5.283125 12.7875 6.12875 13 7 C13.66 7.33 14.32 7.66 15 8 C14.38125 8.33 13.7625 8.66 13.125 9 C9.98415875 11.95608588 9.82441798 14.80920859 9 19 C5.37 19.33 1.74 19.66 -2 20 C-1.34 19.34 -0.68 18.68 0 18 C1.32 18 2.64 18 4 18 C4 17.01 4 16.02 4 15 C4.66 15 5.32 15 6 15 C5.34 14.01 4.68 13.02 4 12 C3.5859375 9.73828125 3.5859375 9.73828125 3.375 7.3125 C3.30023438 6.50425781 3.22546875 5.69601563 3.1484375 4.86328125 C3.09945312 4.24839844 3.05046875 3.63351563 3 3 C2.34 3.66 1.68 4.32 1 5 C0.67 3.35 0.34 1.7 0 0 Z " fill="#0C4F36" transform="translate(115,76)"/>
<path d="M0 0 C0.99 1.32 1.98 2.64 3 4 C1.68 4.33 0.36 4.66 -1 5 C-1 6.32 -1 7.64 -1 9 C-1.66 9 -2.32 9 -3 9 C-3.33 9.99 -3.66 10.98 -4 12 C-4.99 12.33 -5.98 12.66 -7 13 C-7 12.34 -7 11.68 -7 11 C-8.65 11 -10.3 11 -12 11 C-11.67 12.65 -11.34 14.3 -11 16 C-11.66 16.33 -12.32 16.66 -13 17 C-13.103125 16.360625 -13.20625 15.72125 -13.3125 15.0625 C-13.539375 14.381875 -13.76625 13.70125 -14 13 C-14.99 12.67 -15.98 12.34 -17 12 C-15.56967163 10.82455195 -14.13046758 9.65989738 -12.6875 8.5 C-11.88699219 7.8503125 -11.08648437 7.200625 -10.26171875 6.53125 C-8 5 -8 5 -5 5 C-4.67 4.01 -4.34 3.02 -4 2 C-1.9375 0.8125 -1.9375 0.8125 0 0 Z " fill="#022716" transform="translate(30,125)"/>
<path d="M0 0 C3.63 0.33 7.26 0.66 11 1 C11.33 1.99 11.66 2.98 12 4 C10.35 4.33 8.7 4.66 7 5 C7 5.99 7 6.98 7 8 C8.65 8.33 10.3 8.66 12 9 C12 9.33 12 9.66 12 10 C10.02 10 8.04 10 6 10 C6 11.32 6 12.64 6 14 C4.35 13.67 2.7 13.34 1 13 C1 12.01 1 11.02 1 10 C0.34 10 -0.32 10 -1 10 C-1 9.34 -1 8.68 -1 8 C0.32 8 1.64 8 3 8 C3 7.34 3 6.68 3 6 C2.01 6 1.02 6 0 6 C0 4.02 0 2.04 0 0 Z " fill="#0B4C34" transform="translate(129,108)"/>
<path d="M0 0 C0.144375 0.598125 0.28875 1.19625 0.4375 1.8125 C0.8872439 3.56150404 1.42892341 5.28677023 2 7 C1.5625 9.1875 1.5625 9.1875 1 11 C1.66 11.33 2.32 11.66 3 12 C1.68 12.33 0.36 12.66 -1 13 C-1 13.99 -1 14.98 -1 16 C-2.58323688 16.027193 -4.16661062 16.04648306 -5.75 16.0625 C-7.07257813 16.07990234 -7.07257813 16.07990234 -8.421875 16.09765625 C-10.7818838 16.00826198 -12.74498524 15.66912821 -15 15 C-15.33 13.35 -15.66 11.7 -16 10 C-12.71303767 9.20046862 -11.28976808 8.90341064 -8 10 C-7.34 10.66 -6.68 11.32 -6 12 C-2.44992282 8.0949151 -1.18180084 5.02265357 0 0 Z " fill="#145B41" transform="translate(239,8)"/>
<path d="M0 0 C0.33 0 0.66 0 1 0 C1.66 3.63 2.32 7.26 3 11 C1.02 11.99 1.02 11.99 -1 13 C-0.67 12.01 -0.34 11.02 0 10 C-1.11375 10.165 -2.2275 10.33 -3.375 10.5 C-6.40389154 10.91777814 -8.96238978 11 -12 11 C-12.33 10.34 -12.66 9.68 -13 9 C-15.02463255 8.34786708 -15.02463255 8.34786708 -17 8 C-16.34 7.01 -15.68 6.02 -15 5 C-13.0546875 4.70703125 -13.0546875 4.70703125 -10.875 4.8125 C-9.59625 4.874375 -8.3175 4.93625 -7 5 C-7 5.66 -7 6.32 -7 7 C-6.01 6.34 -5.02 5.68 -4 5 C-2.68 5 -1.36 5 0 5 C0 4.34 0 3.68 0 3 C-0.66 2.67 -1.32 2.34 -2 2 C-1.34 1.34 -0.68 0.68 0 0 Z M-19 9 C-18.01 9.495 -18.01 9.495 -17 10 C-17.99 10.495 -17.99 10.495 -19 11 C-19 10.34 -19 9.68 -19 9 Z " fill="#063623" transform="translate(63,53)"/>
<path d="M0 0 C0.66 0 1.32 0 2 0 C2.05416188 1.60379341 2.09286638 3.20811406 2.125 4.8125 C2.14820313 5.70582031 2.17140625 6.59914063 2.1953125 7.51953125 C2 10 2 10 0 13 C-0.99 13 -1.98 13 -3 13 C-3 12.34 -3 11.68 -3 11 C-4.98 11 -6.96 11 -9 11 C-8.67 8.36 -8.34 5.72 -8 3 C-3.25 1 -3.25 1 -1 1 C-0.67 0.67 -0.34 0.34 0 0 Z " fill="#146247" transform="translate(243,101)"/>
<path d="M0 0 C1.98 0.99 3.96 1.98 6 3 C5.814375 3.70125 5.62875 4.4025 5.4375 5.125 C4.83461198 8.0560112 4.83461198 8.0560112 5.5625 11.1875 C5.706875 12.115625 5.85125 13.04375 6 14 C5.34 14.66 4.68 15.32 4 16 C3.34 15.67 2.68 15.34 2 15 C1.67 15.99 1.34 16.98 1 18 C0.01 17.67 -0.98 17.34 -2 17 C-2 16.34 -2 15.68 -2 15 C-2.66 15 -3.32 15 -4 15 C-4 13.35 -4 11.7 -4 10 C-3.21625 9.896875 -2.4325 9.79375 -1.625 9.6875 C1.33045181 9.22404978 1.33045181 9.22404978 3 6 C1.68 5.34 0.36 4.68 -1 4 C-0.67 2.68 -0.34 1.36 0 0 Z " fill="#115A41" transform="translate(228,93)"/>
<path d="M0 0 C0.99 0.33 1.98 0.66 3 1 C3.8125 4.25 3.8125 4.25 4 8 C1.62495013 10.6544675 -0.26286612 11.75428871 -3.625 12.875 C-6 13 -6 13 -9 11 C-8.1875 8.5625 -8.1875 8.5625 -7 6 C-6.01 5.67 -5.02 5.34 -4 5 C-2.79117904 2.99983534 -2.79117904 2.99983534 -2 1 C-1.34 1.33 -0.68 1.66 0 2 C0 1.34 0 0.68 0 0 Z " fill="#0A4430" transform="translate(81,90)"/>
<path d="M0 0 C0.99 0.33 1.98 0.66 3 1 C3.12375 1.969375 3.2475 2.93875 3.375 3.9375 C3.58125 4.948125 3.7875 5.95875 4 7 C4.66 7.33 5.32 7.66 6 8 C6 8.99 6 9.98 6 11 C7.32 10.34 8.64 9.68 10 9 C10 10.32 10 11.64 10 13 C10.66 13.33 11.32 13.66 12 14 C12 14.66 12 15.32 12 16 C7.38 16 2.76 16 -2 16 C-1.67 14.68 -1.34 13.36 -1 12 C0.65 11.67 2.3 11.34 4 11 C3.34 9.35 2.68 7.7 2 6 C0.68 6 -0.64 6 -2 6 C-1.34 4.02 -0.68 2.04 0 0 Z " fill="#053522" transform="translate(214,152)"/>
<path d="M0 0 C0.66 0.33 1.32 0.66 2 1 C1.01 2.485 1.01 2.485 0 4 C2.5011748 3.55336164 3.82756946 3.15395584 5.75 1.4375 C9.16348916 -0.7433403 11.99872124 -0.20006394 16 0 C16 0.66 16 1.32 16 2 C13.76953125 3.62109375 13.76953125 3.62109375 10.8125 5.4375 C9.84957031 6.03433594 8.88664063 6.63117187 7.89453125 7.24609375 C5.26731725 8.83802234 2.63666816 10.42378339 0 12 C0 11.34 0 10.68 0 10 C0.66 9.67 1.32 9.34 2 9 C0.68 8.01 -0.64 7.02 -2 6 C-1.125 1.125 -1.125 1.125 0 0 Z " fill="#0F563D" transform="translate(186,16)"/>
<path d="M0 0 C1.1446875 0.12375 1.1446875 0.12375 2.3125 0.25 C1.9825 1.1575 1.6525 2.065 1.3125 3 C0.11644277 6.32045807 0.11644277 6.32045807 0.3125 10.25 C0.00098712 12.58634657 -0.32909778 14.92038557 -0.6875 17.25 C-1.6775 16.92 -2.6675 16.59 -3.6875 16.25 C-3.6875 15.59 -3.6875 14.93 -3.6875 14.25 C-4.6775 14.58 -5.6675 14.91 -6.6875 15.25 C-6.666875 14.46625 -6.64625 13.6825 -6.625 12.875 C-6.50065937 10.26885039 -6.50065937 10.26885039 -7.6875 8.25 C-6.6975 8.25 -5.7075 8.25 -4.6875 8.25 C-4.914375 7.6725 -5.14125 7.095 -5.375 6.5 C-5.6875 4.25 -5.6875 4.25 -4.5625 2 C-2.6875 0.25 -2.6875 0.25 0 0 Z " fill="#083521" transform="translate(14.6875,15.75)"/>
<path d="M0 0 C0.99 0.33 1.98 0.66 3 1 C3 1.99 3 2.98 3 4 C4.32 4 5.64 4 7 4 C7 6.31 7 8.62 7 11 C2.71 11 -1.58 11 -6 11 C-2.25 4.25 -2.25 4.25 0 2 C0 1.34 0 0.68 0 0 Z " fill="#16674C" transform="translate(293,157)"/>
<path d="M0 0 C1.65 0.33 3.3 0.66 5 1 C5 1.99 5 2.98 5 4 C9.95 2.515 9.95 2.515 15 1 C15 3 15 5 15 7 C14.01 7.33 13.02 7.66 12 8 C13.65 8 15.3 8 17 8 C17 8.33 17 8.66 17 9 C14.69 9 12.38 9 10 9 C9.67 8.01 9.34 7.02 9 6 C6.13275314 6.57344937 5.1385485 6.8614515 3 9 C0.375 9.625 0.375 9.625 -2 10 C-1.67 8.35 -1.34 6.7 -1 5 C-0.01 4.67 0.98 4.34 2 4 C2 3.34 2 2.68 2 2 C1.34 2 0.68 2 0 2 C0 1.34 0 0.68 0 0 Z " fill="#094D36" transform="translate(81,71)"/>
<path d="M0 0 C0.99 0 1.98 0 3 0 C3 0.99 3 1.98 3 3 C4.32 3.33 5.64 3.66 7 4 C5.68 4.33 4.36 4.66 3 5 C3 5.99 3 6.98 3 8 C4.65 8 6.3 8 8 8 C8 8.99 8 9.98 8 11 C5.35261084 12.4606285 4.10551666 13 1 13 C0.34 12.34 -0.32 11.68 -1 11 C-4.08347826 10.83318891 -4.08347826 10.83318891 -7 11 C-6.57847656 10.54109375 -6.15695313 10.0821875 -5.72265625 9.609375 C-4.90087891 8.68898438 -4.90087891 8.68898438 -4.0625 7.75 C-3.51722656 7.14671875 -2.97195312 6.5434375 -2.41015625 5.921875 C-0.93787201 3.91532695 -0.42470811 2.42997551 0 0 Z " fill="#13523A" transform="translate(26,61)"/>
<path d="M0 0 C0.66 0 1.32 0 2 0 C2 0.66 2 1.32 2 2 C2.99 1.67 3.98 1.34 5 1 C4.67 2.98 4.34 4.96 4 7 C4.66 7.33 5.32 7.66 6 8 C1.38 8 -3.24 8 -8 8 C-8.66 5.69 -9.32 3.38 -10 1 C-8.68 1 -7.36 1 -6 1 C-6 1.66 -6 2.32 -6 3 C-4.02 3 -2.04 3 0 3 C0 2.01 0 1.02 0 0 Z " fill="#186047" transform="translate(162,160)"/>
<path d="M0 0 C7.34693878 -0.48979592 7.34693878 -0.48979592 10.5 1.875 C12 4 12 4 12 6 C11.01 6.33 10.02 6.66 9 7 C8.67 6.01 8.34 5.02 8 4 C7.67 4.33 7.34 4.66 7 5 C7.350625 5.886875 7.70125 6.77375 8.0625 7.6875 C9.01755602 11.06203126 8.97151132 12.69686152 8 16 C7.67 16 7.34 16 7 16 C7 13.69 7 11.38 7 9 C6.01 9 5.02 9 4 9 C4 8.34 4 7.68 4 7 C3.34 7 2.68 7 2 7 C2 7.66 2 8.32 2 9 C0.02 9 -1.96 9 -4 9 C-2.35 7.35 -0.7 5.7 1 4 C0.34 3.34 -0.32 2.68 -1 2 C-0.67 1.34 -0.34 0.68 0 0 Z " fill="#16533C" transform="translate(28,46)"/>
<path d="M0 0 C0.33 0.66 0.66 1.32 1 2 C1.99 2.33 2.98 2.66 4 3 C3.01 3.33 2.02 3.66 1 4 C1 5.98 1 7.96 1 10 C-1.31 10 -3.62 10 -6 10 C-7.20628008 7.66785852 -8.1654738 5.50357861 -9 3 C-9.66 2.67 -10.32 2.34 -11 2 C-9.39125 2.061875 -9.39125 2.061875 -7.75 2.125 C-4.34252515 2.0114175 -2.79260369 1.78726636 0 0 Z " fill="#0E543C" transform="translate(295,139)"/>
<path d="M0 0 C0.99 0.33 1.98 0.66 3 1 C3 1.66 3 2.32 3 3 C3.61875 3.28875 4.2375 3.5775 4.875 3.875 C7 5 7 5 9 7 C9.125 10.125 9.125 10.125 9 13 C8.01 13 7.02 13 6 13 C5.67 11.68 5.34 10.36 5 9 C4.34 9 3.68 9 3 9 C3 8.34 3 7.68 3 7 C1.68 7 0.36 7 -1 7 C-1 6.01 -1 5.02 -1 4 C-1.66 4 -2.32 4 -3 4 C-3 3.34 -3 2.68 -3 2 C-2.01 1.34 -1.02 0.68 0 0 Z " fill="#135B40" transform="translate(219,116)"/>
<path d="M0 0 C0.33 0.66 0.66 1.32 1 2 C4.02934491 2.65772428 4.02934491 2.65772428 7 3 C6.93489583 5.01822917 6.86979167 7.03645833 6.8046875 9.0546875 C6.81668311 11.23863645 6.81668311 11.23863645 9 13 C7.68 13 6.36 13 5 13 C5.33 11.35 5.66 9.7 6 8 C5.01 8 4.02 8 3 8 C2.67 7.34 2.34 6.68 2 6 C1.278125 6.495 0.55625 6.99 -0.1875 7.5 C-3.14848659 9.07919285 -4.71253029 9.28178312 -8 9 C-8.33 8.01 -8.66 7.02 -9 6 C-8.2575 5.855625 -7.515 5.71125 -6.75 5.5625 C-4.47972261 5.09812508 -2.24240521 4.58136431 0 4 C0 2.68 0 1.36 0 0 Z " fill="#115239" transform="translate(60,104)"/>
<path d="M0 0 C2.64 0 5.28 0 8 0 C8 0.66 8 1.32 8 2 C9.32 2 10.64 2 12 2 C11.34 3.32 10.68 4.64 10 6 C9.34 6 8.68 6 8 6 C7.67 6.99 7.34 7.98 7 9 C6.4225 8.690625 5.845 8.38125 5.25 8.0625 C3.15705816 7.07416636 1.25464725 6.4831387 -1 6 C-0.67 4.02 -0.34 2.04 0 0 Z " fill="#063721" transform="translate(68,106)"/>
<path d="M0 0 C0.33 0.99 0.66 1.98 1 3 C1.99 3 2.98 3 4 3 C4 3.99 4 4.98 4 6 C4.66 6 5.32 6 6 6 C6 6.66 6 7.32 6 8 C4.35 7.67 2.7 7.34 1 7 C1.020625 7.94875 1.04125 8.8975 1.0625 9.875 C1 13 1 13 0 15 C-1.32 14.67 -2.64 14.34 -4 14 C-5.10844919 10.67465243 -4.84454356 8.37817425 -4 5 C-3.34 5 -2.68 5 -2 5 C-1.67 4.01 -1.34 3.02 -1 2 C-0.67 1.34 -0.34 0.68 0 0 Z " fill="#176047" transform="translate(70,88)"/>
<path d="M0 0 C3.93846154 3.32307692 3.93846154 3.32307692 4.25 6.75 C4.1675 7.4925 4.085 8.235 4 9 C4.66 9 5.32 9 6 9 C5.67 9.99 5.34 10.98 5 12 C0.97007218 11.44687265 -3.02022924 10.8441938 -7 10 C-7 9.34 -7 8.68 -7 8 C-3.53846154 5 -3.53846154 5 -1 5 C-0.67 3.35 -0.34 1.7 0 0 Z " fill="#0C442F" transform="translate(7,151)"/>
<path d="M0 0 C1.37478516 0.01740234 1.37478516 0.01740234 2.77734375 0.03515625 C3.69644531 0.04417969 4.61554688 0.05320312 5.5625 0.0625 C6.27277344 0.07410156 6.98304688 0.08570312 7.71484375 0.09765625 C8.31217194 2.86029914 8.71484375 5.25798394 8.71484375 8.09765625 C7.06484375 7.76765625 5.41484375 7.43765625 3.71484375 7.09765625 C3.38484375 6.10765625 3.05484375 5.11765625 2.71484375 4.09765625 C0.73484375 4.42765625 -1.24515625 4.75765625 -3.28515625 5.09765625 C-3.28515625 0.14039129 -3.28515625 0.14039129 0 0 Z " fill="#18684B" transform="translate(135.28515625,31.90234375)"/>
<path d="M0 0 C10.55808656 -0.18451025 10.55808656 -0.18451025 15 1 C15.33 2.32 15.66 3.64 16 5 C15.01 5 14.02 5 13 5 C12.34 6.65 11.68 8.3 11 10 C10.67 10 10.34 10 10 10 C10 7.69 10 5.38 10 3 C9.34 3 8.68 3 8 3 C7.67 3.66 7.34 4.32 7 5 C5.02 5 3.04 5 1 5 C0.67 3.35 0.34 1.7 0 0 Z " fill="#0E533A" transform="translate(256,35)"/>
<path d="M0 0 C2.33944736 0.28730055 4.6739143 0.61936779 7 1 C8.23076923 6.41538462 8.23076923 6.41538462 7.0625 9.375 C6.711875 9.91125 6.36125 10.4475 6 11 C6 10.34 6 9.68 6 9 C5.05125 8.690625 4.1025 8.38125 3.125 8.0625 C0 7 0 7 -2 6 C-1.125 1.125 -1.125 1.125 0 0 Z " fill="#0C5B3E" transform="translate(277,15)"/>
<path d="M0 0 C0 0.66 0 1.32 0 2 C2.64 2 5.28 2 8 2 C8 3.65 8 5.3 8 7 C5.69 7 3.38 7 1 7 C0.67 6.01 0.34 5.02 0 4 C-2.31 4 -4.62 4 -7 4 C-7.33 3.01 -7.66 2.02 -8 1 C-5.10765685 0.17361624 -3.11257569 0 0 0 Z " fill="#11573D" transform="translate(256,136)"/>
<path d="M0 0 C0.99 0.33 1.98 0.66 3 1 C2.01 1.495 2.01 1.495 1 2 C3.31 2.33 5.62 2.66 8 3 C7.67 3.99 7.34 4.98 7 6 C6.39671875 5.98839844 5.7934375 5.97679688 5.171875 5.96484375 C4.37265625 5.95582031 3.5734375 5.94679688 2.75 5.9375 C1.96109375 5.92589844 1.1721875 5.91429688 0.359375 5.90234375 C-1.97354038 5.9165111 -1.97354038 5.9165111 -4.0625 6.53125 C-7.12481871 7.27213356 -9.93579702 6.53034282 -13 6 C-13 5.01 -13 4.02 -13 3 C-9.37 3 -5.74 3 -2 3 C-2 2.34 -2 1.68 -2 1 C-1.34 0.67 -0.68 0.34 0 0 Z " fill="#1D6C51" transform="translate(154,98)"/>
<path d="M0 0 C1.5 1.375 1.5 1.375 3 3 C3 3.66 3 4.32 3 5 C1.68 5.33 0.36 5.66 -1 6 C-1.33 7.32 -1.66 8.64 -2 10 C-2.598125 9.814375 -3.19625 9.62875 -3.8125 9.4375 C-6.16408762 8.77906313 -6.16408762 8.77906313 -9 10 C-8.67193728 6.96541983 -8.46210789 5.43023838 -6.1875 3.3125 C-4.16272378 2.09763427 -2.14134904 0.99419777 0 0 Z " fill="#053221" transform="translate(76,52)"/>
<path d="M0 0 C0.66 0 1.32 0 2 0 C2 1.65 2 3.3 2 5 C2.66 5 3.32 5 4 5 C4 5.99 4 6.98 4 8 C3.34 8 2.68 8 2 8 C2 8.66 2 9.32 2 10 C4.31 10 6.62 10 9 10 C8.01 11.485 8.01 11.485 7 13 C4.72265625 13.3984375 4.72265625 13.3984375 2.0625 13.375 C0.74958984 13.38660156 0.74958984 13.38660156 -0.58984375 13.3984375 C-3.38440081 12.93645238 -4.25774945 12.17350069 -6 10 C-4.35 10 -2.7 10 -1 10 C-0.67 6.7 -0.34 3.4 0 0 Z " fill="#186449" transform="translate(259,22)"/>
<path d="M0 0 C0 1.98 0 3.96 0 6 C-9.41002278 6.18451025 -9.41002278 6.18451025 -14 5 C-13.34 4.67 -12.68 4.34 -12 4 C-12 3.34 -12 2.68 -12 2 C-10.68 2 -9.36 2 -8 2 C-8 1.34 -8 0.68 -8 0 C-4.94736336 -0.98120464 -3.05263664 -0.98120464 0 0 Z " fill="#176148" transform="translate(144,104)"/>
<path d="M0 0 C2.31 0.33 4.62 0.66 7 1 C6.67 3.64 6.34 6.28 6 9 C3.33333333 8.33333333 0.66666667 7.66666667 -2 7 C-2 5.35 -2 3.7 -2 2 C-1.34 2 -0.68 2 0 2 C0 1.34 0 0.68 0 0 Z " fill="#15684C" transform="translate(170,122)"/>
<path d="M0 0 C0.25 6.625 0.25 6.625 -2 10 C-2.99 9.67 -3.98 9.34 -5 9 C-5 7.68 -5 6.36 -5 5 C-6.32 5 -7.64 5 -9 5 C-8.8125 3.125 -8.8125 3.125 -8 1 C-4.70594381 -0.82039948 -3.63772813 -1.21257604 0 0 Z " fill="#135D42" transform="translate(174,73)"/>
<path d="M0 0 C3.63 0 7.26 0 11 0 C11 1.32 11 2.64 11 4 C7.17679443 5.42258812 4.08718695 6.24042276 0 6 C-1.125 2.25 -1.125 2.25 0 0 Z " fill="#0E4D35" transform="translate(289,0)"/>
<path d="M0 0 C0 0.66 0 1.32 0 2 C-0.66 2 -1.32 2 -2 2 C-2 2.66 -2 3.32 -2 4 C-1.34 4 -0.68 4 0 4 C-0.66 5.32 -1.32 6.64 -2 8 C-1.34 8.33 -0.68 8.66 0 9 C-0.33 9.99 -0.66 10.98 -1 12 C-4 12 -7 12 -10 12 C-10 10.68 -10 9.36 -10 8 C-7.525 8.495 -7.525 8.495 -5 9 C-5.2475 8.2575 -5.495 7.515 -5.75 6.75 C-6 4 -6 4 -4.1875 1.6875 C-2 0 -2 0 0 0 Z " fill="#146046" transform="translate(154,119)"/>
<path d="M0 0 C3.0625 0.125 3.0625 0.125 5.0625 1.125 C4.63052365 5.8767398 3.73480705 8.04500054 0.0625 11.125 C0.0625 10.135 0.0625 9.145 0.0625 8.125 C0.7225 8.125 1.3825 8.125 2.0625 8.125 C2.0625 7.465 2.0625 6.805 2.0625 6.125 C-0.2475 5.795 -2.5575 5.465 -4.9375 5.125 C-3.81691788 0.16242204 -3.81691788 0.16242204 0 0 Z " fill="#175840" transform="translate(7.9375,94.875)"/>
<path d="M0 0 C2.97 0 5.94 0 9 0 C8.125 8.75 8.125 8.75 7 11 C6.01 10.67 5.02 10.34 4 10 C4 8.02 4 6.04 4 4 C2.68 3.67 1.36 3.34 0 3 C0 2.01 0 1.02 0 0 Z " fill="#0D4F36" transform="translate(132,0)"/>
<path d="M0 0 C6.75 -0.125 6.75 -0.125 9 1 C8.34 2.98 7.68 4.96 7 7 C6.01 7 5.02 7 4 7 C4 6.34 4 5.68 4 5 C1.69 5 -0.62 5 -3 5 C-2.01 4.67 -1.02 4.34 0 4 C0 2.68 0 1.36 0 0 Z " fill="#0E543C" transform="translate(259,112)"/>
<path d="M0 0 C0.99 0.33 1.98 0.66 3 1 C2.09456151 3.71631546 1.07525194 6.34771188 0 9 C-0.66 9 -1.32 9 -2 9 C-1.67 10.65 -1.34 12.3 -1 14 C-3.31 13.34 -5.62 12.68 -8 12 C-8 11.34 -8 10.68 -8 10 C-7.38125 9.938125 -6.7625 9.87625 -6.125 9.8125 C-3.76553562 9.18789421 -3.76553562 9.18789421 -2.875 6.6875 C-2.441875 5.3571875 -2.441875 5.3571875 -2 4 C-1.34786461 2.65949948 -0.68620031 1.32338632 0 0 Z " fill="#115139" transform="translate(64,87)"/>
<path d="M0 0 C0.66 0.33 1.32 0.66 2 1 C1.67 3.31 1.34 5.62 1 8 C-4.75 9.125 -4.75 9.125 -7 8 C-6.67 6.35 -6.34 4.7 -6 3 C-4.35 3 -2.7 3 -1 3 C-0.67 2.01 -0.34 1.02 0 0 Z " fill="#15664A" transform="translate(273,112)"/>
<path d="M0 0 C1.134375 0.020625 2.26875 0.04125 3.4375 0.0625 C3.75 2.375 3.75 2.375 3.4375 5.0625 C0.57646577 7.30493223 -0.90326304 8.0625 -4.5625 8.0625 C-4.60491723 5.72955225 -4.60342937 3.39547433 -4.5625 1.0625 C-3.5625 0.0625 -3.5625 0.0625 0 0 Z " fill="#053623" transform="translate(296.5625,55.9375)"/>
<path d="M0 0 C0.66 0.33 1.32 0.66 2 1 C2.25 4.3125 2.25 4.3125 2 8 C0.1875 9.9375 0.1875 9.9375 -2 11 C-2.99 11 -3.98 11 -5 11 C-5 8.36 -5 5.72 -5 3 C-4.67 3.66 -4.34 4.32 -4 5 C-3.01 5 -2.02 5 -1 5 C-0.67 3.35 -0.34 1.7 0 0 Z " fill="#0D5038" transform="translate(109,53)"/>
<path d="M0 0 C0.33 0 0.66 0 1 0 C1.33 2.64 1.66 5.28 2 8 C1.01 8 0.02 8 -1 8 C-0.67 8.99 -0.34 9.98 0 11 C-0.33 11.66 -0.66 12.32 -1 13 C-2.32 12.67 -3.64 12.34 -5 12 C-5.88492145 9.52221994 -6.11637742 8.33943414 -5.25 5.8125 C-4 4 -4 4 -1 3 C-0.67 2.01 -0.34 1.02 0 0 Z " fill="#17664C" transform="translate(201,19)"/>
<path d="M0 0 C0.33 0.66 0.66 1.32 1 2 C1.66 2 2.32 2 3 2 C3 2.66 3 3.32 3 4 C3.66 4 4.32 4 5 4 C4.50168276 7.68754757 3.89932357 9.60490662 1 12 C0.67 11.34 0.34 10.68 0 10 C-0.99 10.495 -0.99 10.495 -2 11 C-2 8.36 -2 5.72 -2 3 C-1.34 3 -0.68 3 0 3 C0 2.01 0 1.02 0 0 Z M0 4 C-0.33 4.66 -0.66 5.32 -1 6 C-0.34 6 0.32 6 1 6 C0.67 5.34 0.34 4.68 0 4 Z " fill="#073423" transform="translate(58,84)"/>
<path d="M0 0 C0.99 0 1.98 0 3 0 C3.66 0.99 4.32 1.98 5 3 C7.32495277 3.38749213 9.6599583 3.71758117 12 4 C13.35357543 4.62454445 14.69296439 5.28314567 16 6 C14.54263913 6.19491452 13.08405407 6.38069358 11.625 6.5625 C10.81289062 6.66691406 10.00078125 6.77132812 9.1640625 6.87890625 C7 7 7 7 5 6 C5 6.66 5 7.32 5 8 C4.34 7.67 3.68 7.34 3 7 C2.375 4.4375 2.375 4.4375 2 2 C1.34 2 0.68 2 0 2 C0 1.34 0 0.68 0 0 Z " fill="#073B27" transform="translate(86,152)"/>
<path d="M0 0 C1.67542976 0.28604898 3.34385343 0.61781233 5 1 C5 1.66 5 2.32 5 3 C5.66 3 6.32 3 7 3 C7 4.32 7 5.64 7 7 C3.37673261 8.2077558 2.35853631 7.54311128 -1 6 C-1.042721 4.33388095 -1.04063832 2.66617115 -1 1 C-0.67 0.67 -0.34 0.34 0 0 Z " fill="#166249" transform="translate(123,55)"/>
<path d="M0 0 C0.33 0 0.66 0 1 0 C1.33 2.64 1.66 5.28 2 8 C1.34 8 0.68 8 0 8 C0 5.36 0 2.72 0 0 Z M-2 5 C-1.34 6.32 -0.68 7.64 0 9 C-2.97 11.475 -2.97 11.475 -6 14 C-6 13.34 -6 12.68 -6 12 C-7.65 11.67 -9.3 11.34 -11 11 C-11 10.01 -11 9.02 -11 8 C-10.34 8 -9.68 8 -9 8 C-9 8.99 -9 9.98 -9 11 C-7.68 11 -6.36 11 -5 11 C-5 9.35 -5 7.7 -5 6 C-4.01 5.67 -3.02 5.34 -2 5 Z " fill="#083E29" transform="translate(74,136)"/>
<path d="M0 0 C0.72445313 0.08378906 1.44890625 0.16757813 2.1953125 0.25390625 C7.3349182 0.79527805 11.91365942 1.23721798 17 0 C17 0.99 17 1.98 17 3 C14.69 3.33 12.38 3.66 10 4 C12.97 4.495 12.97 4.495 16 5 C16 5.33 16 5.66 16 6 C13.36 6.33 10.72 6.66 8 7 C8 6.01 8 5.02 8 4 C5.69 3.67 3.38 3.34 1 3 C0.67 2.01 0.34 1.02 0 0 Z " fill="#115D44" transform="translate(263,119)"/>
<path d="M0 0 C2.475 0.99 2.475 0.99 5 2 C5.1953125 4.01822917 5.390625 6.03645833 5.5859375 8.0546875 C5.86374749 10.22668245 5.86374749 10.22668245 8 12 C6.02 12.99 6.02 12.99 4 14 C3.67 11.36 3.34 8.72 3 6 C1.02 6.99 1.02 6.99 -1 8 C-1 7.01 -1 6.02 -1 5 C-0.34 5 0.32 5 1 5 C1 4.34 1 3.68 1 3 C0.34 2.67 -0.32 2.34 -1 2 C-0.67 1.34 -0.34 0.68 0 0 Z " fill="#1A674B" transform="translate(92,142)"/>
<path d="M0 0 C0.66 0 1.32 0 2 0 C1.34 1.32 0.68 2.64 0 4 C-0.66 4 -1.32 4 -2 4 C-2 5.32 -2 6.64 -2 8 C-2.66 8 -3.32 8 -4 8 C-4 8.99 -4 9.98 -4 11 C-5.32 11.33 -6.64 11.66 -8 12 C-7.52269162 10.5410574 -7.04308958 9.08286504 -6.5625 7.625 C-6.29566406 6.81289062 -6.02882813 6.00078125 -5.75390625 5.1640625 C-5 3 -5 3 -4 1 C-2.68 1.33 -1.36 1.66 0 2 C0 1.34 0 0.68 0 0 Z " fill="#0D533B" transform="translate(294,126)"/>
<path d="M0 0 C0.33 0.66 0.66 1.32 1 2 C1.66 2 2.32 2 3 2 C3 2.66 3 3.32 3 4 C2.34 4 1.68 4 1 4 C1 5.32 1 6.64 1 8 C-0.65 8 -2.3 8 -4 8 C-4 5.69 -4 3.38 -4 1 C-2.68 0.67 -1.36 0.34 0 0 Z " fill="#073926" transform="translate(4,160)"/>
<path d="M0 0 C2.62113708 0 4.50935112 0.31292445 7 1 C7.33 2.98 7.66 4.96 8 7 C7.236875 6.835 6.47375 6.67 5.6875 6.5 C2.96403764 5.90854604 2.96403764 5.90854604 0 6 C-0.38218767 4.34385343 -0.71395102 2.67542976 -1 1 C-0.67 0.67 -0.34 0.34 0 0 Z " fill="#0F5139" transform="translate(224,17)"/>
<path d="M0 0 C0 0.99 0 1.98 0 3 C1.65 3.33 3.3 3.66 5 4 C5.33 5.32 5.66 6.64 6 8 C5.34 8 4.68 8 4 8 C4 7.34 4 6.68 4 6 C3.0925 5.87625 2.185 5.7525 1.25 5.625 C-1.58970323 5.07890323 -3.52590591 4.42736197 -6 3 C-6 2.34 -6 1.68 -6 1 C-4 0 -4 0 0 0 Z " fill="#053421" transform="translate(56,96)"/>
<path d="M0 0 C0.99 0 1.98 0 3 0 C4.97387813 4.76052962 5.0070238 7.96488101 4 13 C3.01 12.67 2.02 12.34 1 12 C0.67 10.02 0.34 8.04 0 6 C0.66 6 1.32 6 2 6 C2 5.34 2 4.68 2 4 C1.34 4 0.68 4 0 4 C0 2.68 0 1.36 0 0 Z " fill="#206C52" transform="translate(74,76)"/>
<path d="M0 0 C-0.57584432 2.38564077 -1.22227595 4.66682784 -2 7 C-1.34 7.33 -0.68 7.66 0 8 C-0.99 8 -1.98 8 -3 8 C-3 7.34 -3 6.68 -3 6 C-4.65 5.67 -6.3 5.34 -8 5 C-7.6875 3.0625 -7.6875 3.0625 -7 1 C-4 0 -4 0 0 0 Z " fill="#1A674F" transform="translate(120,56)"/>
<path d="M0 0 C2.31 0 4.62 0 7 0 C7 1.65 7 3.3 7 5 C6.34 5 5.68 5 5 5 C5 5.99 5 6.98 5 8 C4.01 8 3.02 8 2 8 C2 7.01 2 6.02 2 5 C1.34 5 0.68 5 0 5 C0 3.35 0 1.7 0 0 Z " fill="#105C40" transform="translate(267,1)"/>
<path d="M0 0 C2.80362763 -0.22732116 4.46186517 -0.34081872 6.875 1.1875 C8 3 8 3 7.6875 5.6875 C7.460625 6.450625 7.23375 7.21375 7 8 C4.0625 7.25 4.0625 7.25 1 6 C0.04582732 3.81903388 0 2.35817766 0 0 Z " fill="#135E42" transform="translate(144,40)"/>
<path d="M0 0 C0.33 0.66 0.66 1.32 1 2 C1.99 2 2.98 2 4 2 C4.75 3.5625 4.75 3.5625 5 6 C3.86915563 8.50286409 2.47860484 10.67007722 1 13 C0.67 13 0.34 13 0 13 C0 8.71 0 4.42 0 0 Z " fill="#0A3F2B" transform="translate(79,134)"/>
<path d="M0 0 C1 2 1 2 0.25 5.4375 C-0.8627673 8.60888681 -1.41725594 10.00424323 -4 12 C-4.66 10.02 -5.32 8.04 -6 6 C-6.66 6 -7.32 6 -8 6 C-8 5.34 -8 4.68 -8 4 C-5.525 4.495 -5.525 4.495 -3 5 C-2.01 3.35 -1.02 1.7 0 0 Z " fill="#0C3B28" transform="translate(66,132)"/>
<path d="M0 0 C0.99 0.33 1.98 0.66 3 1 C2.25 2.9375 2.25 2.9375 1 5 C-1.125 5.75 -1.125 5.75 -3 6 C-2.67 5.01 -2.34 4.02 -2 3 C-2.99 3 -3.98 3 -5 3 C-5 4.98 -5 6.96 -5 9 C-7 7 -7 7 -7.125 4.375 C-7.08375 3.59125 -7.0425 2.8075 -7 2 C-4.6875 1.375 -4.6875 1.375 -2 1 C-1.01 1.66 -0.02 2.32 1 3 C0.67 2.01 0.34 1.02 0 0 Z " fill="#012C19" transform="translate(34,137)"/>
<path d="M0 0 C1.32 0 2.64 0 4 0 C4 2.64 4 5.28 4 8 C2.35 8.66 0.7 9.32 -1 10 C-0.67 6.7 -0.34 3.4 0 0 Z " fill="#0F593E" transform="translate(281,128)"/>
<path d="M0 0 C2.31 0.33 4.62 0.66 7 1 C6.67 2.65 6.34 4.3 6 6 C5.01 6 4.02 6 3 6 C3 6.99 3 7.98 3 9 C2.34 9 1.68 9 1 9 C0.67 6.03 0.34 3.06 0 0 Z " fill="#115A3F" transform="translate(178,127)"/>
<path d="M0 0 C2.64 0 5.28 0 8 0 C8 0.99 8 1.98 8 3 C7.34 3 6.68 3 6 3 C5.87625 3.639375 5.7525 4.27875 5.625 4.9375 C5.41875 5.618125 5.2125 6.29875 5 7 C4.01 7.495 4.01 7.495 3 8 C3 6.35 3 4.7 3 3 C2.67 3.66 2.34 4.32 2 5 C1.34 5 0.68 5 0 5 C0 3.35 0 1.7 0 0 Z " fill="#1A664D" transform="translate(77,64)"/>
<path d="M0 0 C-1.47692308 4.67692308 -1.47692308 4.67692308 -4.125 6.3125 C-5.053125 6.6528125 -5.053125 6.6528125 -6 7 C-7.125 3.25 -7.125 3.25 -6 1 C-6.66 0.67 -7.32 0.34 -8 0 C-5.13822943 -1.43088528 -3.06624227 -0.59991697 0 0 Z " fill="#073522" transform="translate(21,128)"/>
<path d="M0 0 C0.99 0.495 0.99 0.495 2 1 C1.01 1.495 1.01 1.495 0 2 C0 1.34 0 0.68 0 0 Z M-9 2 C-7.68 2 -6.36 2 -5 2 C-5 2.66 -5 3.32 -5 4 C-3.35 3.34 -1.7 2.68 0 2 C-0.625 3.9375 -0.625 3.9375 -2 6 C-5.0625 6.625 -5.0625 6.625 -8 7 C-8.33 7.66 -8.66 8.32 -9 9 C-9 6.69 -9 4.38 -9 2 Z " fill="#073624" transform="translate(29,111)"/>
<path d="M0 0 C2.64 0.33 5.28 0.66 8 1 C8.33 2.32 8.66 3.64 9 5 C8.01 4.67 7.02 4.34 6 4 C5.67 4.99 5.34 5.98 5 7 C4.01 6.67 3.02 6.34 2 6 C2 5.34 2 4.68 2 4 C1.34 4 0.68 4 0 4 C0 2.68 0 1.36 0 0 Z " fill="#0C4F38" transform="translate(224,104)"/>
<path d="M0 0 C2.64 0 5.28 0 8 0 C8 0.99 8 1.98 8 3 C5.6875 4.75 5.6875 4.75 3 6 C2.01 5.67 1.02 5.34 0 5 C0.66 4.01 1.32 3.02 2 2 C1.34 2 0.68 2 0 2 C0 1.34 0 0.68 0 0 Z " fill="#022214" transform="translate(96,161)"/>
<path d="M0 0 C2.39073445 3.82517513 2.55966552 7.59665524 3 12 C2.01 12 1.02 12 0 12 C-2.21538462 4.61538462 -2.21538462 4.61538462 -1.125 1.5 C-0.75375 1.005 -0.3825 0.51 0 0 Z " fill="#14523B" transform="translate(107,128)"/>
<path d="M0 0 C1.32 1.65 2.64 3.3 4 5 C3.34 5.66 2.68 6.32 2 7 C1.01 7 0.02 7 -1 7 C-1 8.32 -1 9.64 -1 11 C-1.66 11 -2.32 11 -3 11 C-3.33 11.99 -3.66 12.98 -4 14 C-4 10.7 -4 7.4 -4 4 C-2.68 4 -1.36 4 0 4 C0 2.68 0 1.36 0 0 Z " fill="#18654B" transform="translate(116,69)"/>
<path d="M0 0 C-0.50603992 2.16874252 -0.99983813 3.99967627 -2 6 C-4.31 5.67 -6.62 5.34 -9 5 C-8.67 4.34 -8.34 3.68 -8 3 C-7.34 3.33 -6.68 3.66 -6 4 C-6 3.34 -6 2.68 -6 2 C-6.66 1.67 -7.32 1.34 -8 1 C-2.25 -1.125 -2.25 -1.125 0 0 Z " fill="#10553E" transform="translate(102,74)"/>
<path d="M0 0 C2.875 -0.125 2.875 -0.125 6 0 C6.66 0.66 7.32 1.32 8 2 C7.625 4.125 7.625 4.125 7 6 C5.35 5.01 3.7 4.02 2 3 C1.34 4.32 0.68 5.64 0 7 C0 4.69 0 2.38 0 0 Z " fill="#0A5139" transform="translate(286,120)"/>
<path d="M0 0 C1.32 0.33 2.64 0.66 4 1 C3.01 2.485 3.01 2.485 2 4 C1.34 3.67 0.68 3.34 0 3 C-0.33 5.64 -0.66 8.28 -1 11 C-1.66 10.34 -2.32 9.68 -3 9 C-2.67 8.34 -2.34 7.68 -2 7 C-2.99 6.67 -3.98 6.34 -5 6 C-4.01 5.67 -3.02 5.34 -2 5 C-0.78130071 2.49552484 -0.78130071 2.49552484 0 0 Z M-5 10 C-3 11 -3 11 -3 11 Z " fill="#0E4732" transform="translate(130,85)"/>
<path d="M0 0 C2 1.625 2 1.625 4 4 C4.31452272 7.14522722 4.42041821 9.15916359 3 12 C2.34 12 1.68 12 1 12 C1.66 10.35 2.32 8.7 3 7 C1.68 7.33 0.36 7.66 -1 8 C-2.2077558 4.37673261 -1.54311128 3.35853631 0 0 Z " fill="#166047" transform="translate(180,65)"/>
<path d="M0 0 C0.66 0 1.32 0 2 0 C1.91253716 1.43861294 1.80434652 2.87597508 1.6875 4.3125 C1.62949219 5.11300781 1.57148438 5.91351563 1.51171875 6.73828125 C0.91793306 9.36272334 0.04219706 10.30820672 -2 12 C-2.66 11.67 -3.32 11.34 -4 11 C-3.67 10.67 -3.34 10.34 -3 10 C-2.63239269 7.67182036 -2.29758419 5.3381615 -2 3 C-1.34 3 -0.68 3 0 3 C0 2.01 0 1.02 0 0 Z " fill="#063120" transform="translate(22,44)"/>
<path d="M0 0 C1.65 0 3.3 0 5 0 C4.67 0.9075 4.34 1.815 4 2.75 C2.80394277 6.07045807 2.80394277 6.07045807 3 10 C2.34 10 1.68 10 1 10 C-1.125 3.375 -1.125 3.375 0 0 Z " fill="#052515" transform="translate(12,16)"/>
<path d="M0 0 C0.33 0.99 0.66 1.98 1 3 C0.67 3.66 0.34 4.32 0 5 C-2.64 4.67 -5.28 4.34 -8 4 C-7.67 3.01 -7.34 2.02 -7 1 C-4 0 -4 0 0 0 Z " fill="#196147" transform="translate(192,156)"/>
<path d="M0 0 C0.66 0 1.32 0 2 0 C1.67 2.64 1.34 5.28 1 8 C-0.65 8.33 -2.3 8.66 -4 9 C-2.94124926 5.59687262 -1.99097846 2.98646769 0 0 Z " fill="#043824" transform="translate(180,136)"/>
<path d="M0 0 C1.65 0.33 3.3 0.66 5 1 C5 1.99 5 2.98 5 4 C4.01 4 3.02 4 2 4 C2 4.99 2 5.98 2 7 C2.99 7.33 3.98 7.66 5 8 C3.35 8.66 1.7 9.32 0 10 C0.33 8.68 0.66 7.36 1 6 C0.34 5.67 -0.32 5.34 -1 5 C-0.34 5 0.32 5 1 5 C0.67 3.35 0.34 1.7 0 0 Z " fill="#17674C" transform="translate(163,112)"/>
<path d="M0 0 C0.33 0.66 0.66 1.32 1 2 C0.34 2 -0.32 2 -1 2 C-1 2.66 -1 3.32 -1 4 C-0.01 4 0.98 4 2 4 C2 4.66 2 5.32 2 6 C2.66 6 3.32 6 4 6 C3.67 6.99 3.34 7.98 3 9 C1.02 9 -0.96 9 -3 9 C-2.4140625 2.84765625 -2.4140625 2.84765625 -2 1 C-1.34 0.67 -0.68 0.34 0 0 Z " fill="#0A543B" transform="translate(237,103)"/>
<path d="M0 0 C1.2065625 0.0309375 1.2065625 0.0309375 2.4375 0.0625 C2.4375 2.0425 2.4375 4.0225 2.4375 6.0625 C1.1175 6.3925 -0.2025 6.7225 -1.5625 7.0625 C-2.2225 5.0825 -2.8825 3.1025 -3.5625 1.0625 C-2.5625 0.0625 -2.5625 0.0625 0 0 Z " fill="#136046" transform="translate(163.5625,5.9375)"/>
<path d="M0 0 C-0.62759865 2.92879371 -1.58622659 5.36095629 -3 8 C-3.99 7.67 -4.98 7.34 -6 7 C-5.67 6.67 -5.34 6.34 -5 6 C-5.66 5.34 -6.32 4.68 -7 4 C-3.375 0 -3.375 0 0 0 Z " fill="#023E29" transform="translate(292,158)"/>
<path d="M0 0 C2 1.8125 2 1.8125 4 4 C4 4.99 4 5.98 4 7 C1.69 7.33 -0.62 7.66 -3 8 C-3 7.01 -3 6.02 -3 5 C-2.34 5 -1.68 5 -1 5 C-0.67 3.35 -0.34 1.7 0 0 Z " fill="#135039" transform="translate(7,151)"/>
<path d="M0 0 C2.38564077 0.57584432 4.66682784 1.22227595 7 2 C7 2.66 7 3.32 7 4 C5.02 4.66 3.04 5.32 1 6 C1 5.34 1 4.68 1 4 C0.34 4 -0.32 4 -1 4 C-0.67 2.68 -0.34 1.36 0 0 Z " fill="#0A3C29" transform="translate(2,145)"/>
<path d="M0 0 C0.66 0 1.32 0 2 0 C2.33 1.98 2.66 3.96 3 6 C2.360625 6.12375 1.72125 6.2475 1.0625 6.375 C0.0415625 6.684375 0.0415625 6.684375 -1 7 C-1.33 7.66 -1.66 8.32 -2 9 C-2.125 5.625 -2.125 5.625 -2 2 C-1.34 1.34 -0.68 0.68 0 0 Z " fill="#062F1F" transform="translate(221,136)"/>
<path d="M0 0 C1.9375 0.75 1.9375 0.75 4 2 C4.8125 4 4.8125 4 5 6 C4.67 6.66 4.34 7.32 4 8 C3.34 8 2.68 8 2 8 C2 8.99 2 9.98 2 11 C1.34 11 0.68 11 0 11 C-1 8 -1 8 -0.0625 5.8125 C0.288125 5.214375 0.63875 4.61625 1 4 C0.34 3.01 -0.32 2.02 -1 1 C-0.67 0.67 -0.34 0.34 0 0 Z " fill="#0D3624" transform="translate(35,134)"/>
<path d="M0 0 C2.64 0.33 5.28 0.66 8 1 C7.01 1.66 6.02 2.32 5 3 C4.67 3.99 4.34 4.98 4 6 C2.35 6 0.7 6 -1 6 C-1.33 5.01 -1.66 4.02 -2 3 C-0.68 3 0.64 3 2 3 C2 2.34 2 1.68 2 1 C1.34 0.67 0.68 0.34 0 0 Z " fill="#175D43" transform="translate(107,158)"/>
<path d="M0 0 C0.33 0.66 0.66 1.32 1 2 C1.99 2.33 2.98 2.66 4 3 C2.125 4.0625 2.125 4.0625 0 5 C-0.66 4.67 -1.32 4.34 -2 4 C-2.33 4.99 -2.66 5.98 -3 7 C-3.66 6.34 -4.32 5.68 -5 5 C-4.1875 3.0625 -4.1875 3.0625 -3 1 C-2.01 0.67 -1.02 0.34 0 0 Z " fill="#084E36" transform="translate(295,139)"/>
<path d="M0 0 C0.93423645 3.01031744 1.04449911 3.86650268 0 7 C-0.99 7 -1.98 7 -3 7 C-3 7.66 -3 8.32 -3 9 C-3.99 9 -4.98 9 -6 9 C-6 8.01 -6 7.02 -6 6 C-5.01 6 -4.02 6 -3 6 C-2.87625 5.195625 -2.7525 4.39125 -2.625 3.5625 C-2.41875 2.716875 -2.2125 1.87125 -2 1 C-1.34 0.67 -0.68 0.34 0 0 Z " fill="#043724" transform="translate(247,135)"/>
<path d="M0 0 C7.75 -0.125 7.75 -0.125 10 1 C10 1.99 10 2.98 10 4 C7 5 7 5 4.8125 4.0625 C4.214375 3.711875 3.61625 3.36125 3 3 C3 2.34 3 1.68 3 1 C2.01 0.67 1.02 0.34 0 0 Z " fill="#0D4E38" transform="translate(261,122)"/>
<path d="M0 0 C1.32 0 2.64 0 4 0 C3.61402985 2.79828356 3.19863427 3.8205884 1.0625 5.75 C-1 7 -1 7 -3 7 C-1.125 2.25 -1.125 2.25 0 0 Z " fill="#043924" transform="translate(26,105)"/>
<path d="M0 0 C4.95 0.99 4.95 0.99 10 2 C7 4 7 4 4 5 C4 4.01 4 3.02 4 2 C3.01 2 2.02 2 1 2 C1 2.66 1 3.32 1 4 C1.66 4.33 2.32 4.66 3 5 C2.01 5 1.02 5 0 5 C0 3.35 0 1.7 0 0 Z " fill="#104F37" transform="translate(0,99)"/>
<path d="M0 0 C1.67542976 0.28604898 3.34385343 0.61781233 5 1 C4.3125 2.9375 4.3125 2.9375 3 5 C0.375 5.75 0.375 5.75 -2 6 C-1.125 1.125 -1.125 1.125 0 0 Z " fill="#03442E" transform="translate(81,75)"/>
<path d="M0 0 C0.66 0.33 1.32 0.66 2 1 C2.625 4.0625 2.625 4.0625 3 7 C0.69 7 -1.62 7 -4 7 C-3.34 6.67 -2.68 6.34 -2 6 C-2 5.01 -2 4.02 -2 3 C-1.34 3 -0.68 3 0 3 C0 2.01 0 1.02 0 0 Z " fill="#0F4631" transform="translate(104,161)"/>
<path d="M0 0 C0.99 0.33 1.98 0.66 3 1 C2.125 5.75 2.125 5.75 1 8 C-0.65 7.67 -2.3 7.34 -4 7 C-3.67 6.01 -3.34 5.02 -3 4 C-2.01 4.33 -1.02 4.66 0 5 C0 3.35 0 1.7 0 0 Z " fill="#033320" transform="translate(276,160)"/>
<path d="M0 0 C1.32 0.33 2.64 0.66 4 1 C4.33 2.32 4.66 3.64 5 5 C2.69 5 0.38 5 -2 5 C-1.34 3.35 -0.68 1.7 0 0 Z " fill="#032817" transform="translate(32,40)"/>
<path d="M0 0 C0.99 0 1.98 0 3 0 C3 0.99 3 1.98 3 3 C3.99 3 4.98 3 6 3 C5.67 3.99 5.34 4.98 5 6 C5 5.34 5 4.68 5 4 C3.02 4.33 1.04 4.66 -1 5 C-1 1 -1 1 0 0 Z " fill="#12573D" transform="translate(133,32)"/>
<path d="M0 0 C0.99 0 1.98 0 3 0 C3 0.66 3 1.32 3 2 C3.66 2 4.32 2 5 2 C4.67 3.98 4.34 5.96 4 8 C3.67 7.34 3.34 6.68 3 6 C2.34 6 1.68 6 1 6 C0.34 4.35 -0.32 2.7 -1 1 C-0.67 0.67 -0.34 0.34 0 0 Z " fill="#0C4B34" transform="translate(112,160)"/>
<path d="M0 0 C0.144375 0.598125 0.28875 1.19625 0.4375 1.8125 C0.8872439 3.56150404 1.42892341 5.28677023 2 7 C0.68 7.33 -0.64 7.66 -2 8 C-2 7.01 -2 6.02 -2 5 C-2.66 5 -3.32 5 -4 5 C-4 4.34 -4 3.68 -4 3 C-2 1.375 -2 1.375 0 0 Z " fill="#0D5E40" transform="translate(95,147)"/>
<path d="M0 0 C-0.33 1.98 -0.66 3.96 -1 6 C-1.33 5.34 -1.66 4.68 -2 4 C-3.64363134 3.27840576 -5.31050386 2.60648579 -7 2 C-7 1.34 -7 0.68 -7 0 C-4.3333581 -1.33332095 -2.83319697 -0.67102033 0 0 Z " fill="#1A6247" transform="translate(285,20)"/>
<path d="M0 0 C1.32 0 2.64 0 4 0 C4 0.66 4 1.32 4 2 C4.66 2.33 5.32 2.66 6 3 C5.67 4.32 5.34 5.64 5 7 C4.01 6.67 3.02 6.34 2 6 C0.8125 2.9375 0.8125 2.9375 0 0 Z " fill="#114D36" transform="translate(152,161)"/>
<path d="M0 0 C0.33 0 0.66 0 1 0 C1 2.64 1 5.28 1 8 C-0.32 8 -1.64 8 -3 8 C-3 6.35 -3 4.7 -3 3 C-2.34 3 -1.68 3 -1 3 C-0.67 2.01 -0.34 1.02 0 0 Z " fill="#0F5A3E" transform="translate(100,144)"/>
<path d="M0 0 C0.33 1.98 0.66 3.96 1 6 C-0.98 6.99 -0.98 6.99 -3 8 C-3.6875 5.6875 -3.6875 5.6875 -4 3 C-1.72413793 0 -1.72413793 0 0 0 Z " fill="#17654B" transform="translate(100,88)"/>
<path d="M0 0 C0.99 0.33 1.98 0.66 3 1 C2.09456151 3.71631546 1.07525194 6.34771188 0 9 C-0.33 8.34 -0.66 7.68 -1 7 C-1.66 6.67 -2.32 6.34 -3 6 C-2.01 4.02 -1.02 2.04 0 0 Z " fill="#084630" transform="translate(64,87)"/>
<path d="M0 0 C1.125 3.75 1.125 3.75 0 6 C0.66 6.33 1.32 6.66 2 7 C0.02 7 -1.96 7 -4 7 C-3.39816251 4.97954558 -2.72693904 2.97888961 -2 1 C-1.34 0.67 -0.68 0.34 0 0 Z " fill="#105A41" transform="translate(166,161)"/>
<path d="M0 0 C0.66 0.33 1.32 0.66 2 1 C1.67 1.99 1.34 2.98 1 4 C0.01 4.33 -0.98 4.66 -2 5 C-2.66 4.67 -3.32 4.34 -4 4 C-4 4.66 -4 5.32 -4 6 C-5.32 6 -6.64 6 -8 6 C-7.67 5.01 -7.34 4.02 -7 3 C-6.34 3 -5.68 3 -5 3 C-3.7625 2.2265625 -3.7625 2.2265625 -2.5 1.4375 C-1.675 0.963125 -0.85 0.48875 0 0 Z " fill="#073320" transform="translate(244,152)"/>
<path d="M0 0 C2.97 0.495 2.97 0.495 6 1 C5.67 1.99 5.34 2.98 5 4 C2.03 3.505 2.03 3.505 -1 3 C-0.67 2.01 -0.34 1.02 0 0 Z " fill="#0F472F" transform="translate(42,117)"/>
<path d="M0 0 C0.66 0 1.32 0 2 0 C2.144375 0.7425 2.28875 1.485 2.4375 2.25 C2.90187492 4.52027739 3.41863569 6.75759479 4 9 C2.68 8.67 1.36 8.34 0 8 C-0.98120464 4.94736336 -0.98120464 3.05263664 0 0 Z " fill="#1E6D52" transform="translate(66,94)"/>
<path d="M0 0 C0 0.66 0 1.32 0 2 C-3.21451269 3.60725635 -6.43612536 3.05748185 -10 3 C-8.68 2.67 -7.36 2.34 -6 2 C-6 1.34 -6 0.68 -6 0 C-3.50907189 -1.24546405 -2.58919267 -0.7767578 0 0 Z " fill="#115941" transform="translate(183,165)"/>
<path d="M0 0 C1.5625 1.1875 1.5625 1.1875 3 3 C2.6875 5.6875 2.6875 5.6875 2 8 C1.34 8 0.68 8 0 8 C-0.66 7.01 -1.32 6.02 -2 5 C-1 2 -1 2 0 0 Z " fill="#135D44" transform="translate(289,149)"/>
<path d="M0 0 C2 2 2 2 3 5 C3.99 5.33 4.98 5.66 6 6 C5.01 6.99 4.02 7.98 3 9 C3 8.34 3 7.68 3 7 C1.68 7 0.36 7 -1 7 C-0.67 4.69 -0.34 2.38 0 0 Z " fill="#105A3F" transform="translate(147,129)"/>
<path d="M0 0 C-0.33 0.99 -0.66 1.98 -1 3 C-3.3125 3.625 -3.3125 3.625 -6 4 C-6.99 3.34 -7.98 2.68 -9 2 C-9 1.34 -9 0.68 -9 0 C-2.25 -1.125 -2.25 -1.125 0 0 Z " fill="#064930" transform="translate(98,84)"/>
<path d="M0 0 C0.66 0.33 1.32 0.66 2 1 C2.625 3.5625 2.625 3.5625 3 6 C1.35 5.67 -0.3 5.34 -2 5 C-2 3.68 -2 2.36 -2 1 C-1.34 0.67 -0.68 0.34 0 0 Z " fill="#063D28" transform="translate(178,146)"/>
<path d="M0 0 C1.32 0 2.64 0 4 0 C4 1.98 4 3.96 4 6 C3.01 6 2.02 6 1 6 C0.67 4.02 0.34 2.04 0 0 Z " fill="#13593F" transform="translate(68,120)"/>
<path d="M0 0 C2.0625 0.4375 2.0625 0.4375 4 1 C3.34 1.66 2.68 2.32 2 3 C2 3.33 2 3.66 2 4 C2 4.99 2 5.98 2 7 C1.01 7 0.02 7 -1 7 C-1.04254356 5.00045254 -1.04080783 2.99958364 -1 1 C-0.67 0.67 -0.34 0.34 0 0 Z " fill="#04291A" transform="translate(29,96)"/>
<path d="M0 0 C0.66 0 1.32 0 2 0 C2 0.99 2 1.98 2 3 C2.66 3 3.32 3 4 3 C3.67 4.98 3.34 6.96 3 9 C1.5 7.625 1.5 7.625 0 6 C0 5.34 0 4.68 0 4 C-0.66 3.34 -1.32 2.68 -2 2 C-1.34 2 -0.68 2 0 2 C0 1.34 0 0.68 0 0 Z " fill="#156248" transform="translate(72,77)"/>
<path d="M0 0 C2.475 0.495 2.475 0.495 5 1 C5 2.32 5 3.64 5 5 C5.66 5.33 6.32 5.66 7 6 C5.68 6 4.36 6 3 6 C3 5.01 3 4.02 3 3 C2.01 3.33 1.02 3.66 0 4 C0 2.68 0 1.36 0 0 Z " fill="#0A4A35" transform="translate(90,65)"/>
<path d="M0 0 C0.66 0 1.32 0 2 0 C2 1.65 2 3.3 2 5 C0.35 5.33 -1.3 5.66 -3 6 C-2.67 4.68 -2.34 3.36 -2 2 C-1.34 2 -0.68 2 0 2 C0 1.34 0 0.68 0 0 Z " fill="#186247" transform="translate(136,50)"/>
<path d="M0 0 C0.66 0 1.32 0 2 0 C2.33 2.64 2.66 5.28 3 8 C1.35 6.68 -0.3 5.36 -2 4 C-1.34 2.68 -0.68 1.36 0 0 Z " fill="#094C33" transform="translate(176,152)"/>
<path d="M0 0 C2.64 0.33 5.28 0.66 8 1 C8 1.66 8 2.32 8 3 C5.69 3 3.38 3 1 3 C0.67 2.01 0.34 1.02 0 0 Z " fill="#0E4E36" transform="translate(256,140)"/>
<path d="M0 0 C-0.375 2.4375 -0.375 2.4375 -1 5 C-1.99 5.495 -1.99 5.495 -3 6 C-3.66 5.67 -4.32 5.34 -5 5 C-5 4.01 -5 3.02 -5 2 C-2 0 -2 0 0 0 Z " fill="#134A35" transform="translate(80,126)"/>
<path d="M0 0 C0.33 0.99 0.66 1.98 1 3 C0.05125 2.814375 -0.8975 2.62875 -1.875 2.4375 C-4.89868793 1.71313368 -4.89868793 1.71313368 -7 3 C-7 2.01 -7 1.02 -7 0 C-4.3333581 -1.33332095 -2.83319697 -0.67102033 0 0 Z " fill="#0E4631" transform="translate(58,113)"/>
<path d="M0 0 C0.99 0.33 1.98 0.66 3 1 C4.2676439 3.73030993 4.04311598 4.87352646 3.0625 7.75 C2.711875 8.4925 2.36125 9.235 2 10 C1.34 10 0.68 10 0 10 C0 6.7 0 3.4 0 0 Z " fill="#053322" transform="translate(286,48)"/>
<path d="M0 0 C2.31 0 4.62 0 7 0 C6.67 0.99 6.34 1.98 6 3 C4.02 3 2.04 3 0 3 C0 2.01 0 1.02 0 0 Z " fill="#10543D" transform="translate(242,0)"/>
<path d="M0 0 C2.64 0 5.28 0 8 0 C8 0.99 8 1.98 8 3 C5.125 3.1875 5.125 3.1875 2 3 C1.34 2.01 0.68 1.02 0 0 Z " fill="#052E1D" transform="translate(256,160)"/>
<path d="M0 0 C2.31 0 4.62 0 7 0 C7.33 0.66 7.66 1.32 8 2 C5.36 2.33 2.72 2.66 0 3 C0 2.01 0 1.02 0 0 Z " fill="#01311E" transform="translate(144,159)"/>
<path d="M0 0 C2.31 0.66 4.62 1.32 7 2 C7 2.66 7 3.32 7 4 C4.36 4 1.72 4 -1 4 C-0.67 2.68 -0.34 1.36 0 0 Z " fill="#083F2A" transform="translate(169,133)"/>
<path d="M0 0 C0.66 0 1.32 0 2 0 C1.67 1.32 1.34 2.64 1 4 C1.66 4.33 2.32 4.66 3 5 C2.67 5.66 2.34 6.32 2 7 C1.01 7 0.02 7 -1 7 C-1.33 5.35 -1.66 3.7 -2 2 C-1.34 2 -0.68 2 0 2 C0 1.34 0 0.68 0 0 Z " fill="#1A563F" transform="translate(13,129)"/>
<path d="M0 0 C2.475 0.495 2.475 0.495 5 1 C5 2.32 5 3.64 5 5 C3.68 5.33 2.36 5.66 1 6 C0.67 4.02 0.34 2.04 0 0 Z " fill="#175F45" transform="translate(62,99)"/>
<path d="M0 0 C0.66 0.66 1.32 1.32 2 2 C1.67 2.66 1.34 3.32 1 4 C1.66 4.33 2.32 4.66 3 5 C3 5.66 3 6.32 3 7 C0.03 6.505 0.03 6.505 -3 6 C-2.67 4.68 -2.34 3.36 -2 2 C-1.34 2 -0.68 2 0 2 C0 1.34 0 0.68 0 0 Z " fill="#135D44" transform="translate(85,65)"/>
<path d="M0 0 C1.32 0 2.64 0 4 0 C3.67 1.98 3.34 3.96 3 6 C2.34 6 1.68 6 1 6 C0.34 4.35 -0.32 2.7 -1 1 C-0.67 0.67 -0.34 0.34 0 0 Z " fill="#023722" transform="translate(25,55)"/>
<path d="M0 0 C-0.33 1.65 -0.66 3.3 -1 5 C-2.32 4.67 -3.64 4.34 -5 4 C-5 3.01 -5 2.02 -5 1 C-3 0 -3 0 0 0 Z " fill="#155B41" transform="translate(144,10)"/>
<path d="M0 0 C0.33 0.66 0.66 1.32 1 2 C0.01 3.485 0.01 3.485 -1 5 C-0.34 5.66 0.32 6.32 1 7 C-0.32 7 -1.64 7 -3 7 C-3.33 5.68 -3.66 4.36 -4 3 C-3.34 3 -2.68 3 -2 3 C-2 2.34 -2 1.68 -2 1 C-1.34 0.67 -0.68 0.34 0 0 Z " fill="#07402B" transform="translate(170,154)"/>
<path d="M0 0 C0 1.65 0 3.3 0 5 C-0.99 5.495 -0.99 5.495 -2 6 C-2 5.34 -2 4.68 -2 4 C-2.99 3.67 -3.98 3.34 -5 3 C-2.25 0 -2.25 0 0 0 Z " fill="#0D4C34" transform="translate(112,128)"/>
<path d="M0 0 C0.33 0.66 0.66 1.32 1 2 C1.66 2 2.32 2 3 2 C2.34 4.31 1.68 6.62 1 9 C0.34 8.34 -0.32 7.68 -1 7 C-0.625 3.375 -0.625 3.375 0 0 Z " fill="#0E5C42" transform="translate(161,116)"/>
<path d="M0 0 C-3.4019487 2.09350689 -6.05272412 2.17942163 -10 2 C-10 1.34 -10 0.68 -10 0 C-6.7169902 -1.6415049 -3.57454967 -0.51888624 0 0 Z " fill="#0D6346" transform="translate(160,104)"/>
<path d="M0 0 C0.33 0 0.66 0 1 0 C1 2.64 1 5.28 1 8 C0.01 7.34 -0.98 6.68 -2 6 C-1.125 1.125 -1.125 1.125 0 0 Z " fill="#10523A" transform="translate(299,97)"/>
<path d="M0 0 C0.99 0.33 1.98 0.66 3 1 C2.67 2.65 2.34 4.3 2 6 C1.01 6 0.02 6 -1 6 C-0.67 4.02 -0.34 2.04 0 0 Z " fill="#083322" transform="translate(53,48)"/>
<path d="M0 0 C1.98 0.495 1.98 0.495 4 1 C3.01 1 2.02 1 1 1 C1.33 2.65 1.66 4.3 2 6 C1.01 6.66 0.02 7.32 -1 8 C-0.67 5.36 -0.34 2.72 0 0 Z " fill="#145C44" transform="translate(212,0)"/>
<path d="M0 0 C0.99 0.33 1.98 0.66 3 1 C2.67 2.32 2.34 3.64 2 5 C0.68 4.67 -0.64 4.34 -2 4 C-1.34 2.68 -0.68 1.36 0 0 Z " fill="#053724" transform="translate(226,131)"/>
<path d="M0 0 C0.99 0.33 1.98 0.66 3 1 C1.63016497 4.16115776 1.0109362 4.9927092 -2 7 C-1.42415568 4.61435923 -0.77772405 2.33317216 0 0 Z " fill="#043523" transform="translate(244,131)"/>
<path d="M0 0 C0.66 0 1.32 0 2 0 C2 0.66 2 1.32 2 2 C3.32 1.67 4.64 1.34 6 1 C6 1.99 6 2.98 6 4 C3.69 4 1.38 4 -1 4 C-0.67 2.68 -0.34 1.36 0 0 Z " fill="#033D27" transform="translate(132,124)"/>
<path d="M0 0 C0.66 0 1.32 0 2 0 C2 2.31 2 4.62 2 7 C1.01 6.67 0.02 6.34 -1 6 C-0.34 5.01 0.32 4.02 1 3 C0.01 3.33 -0.98 3.66 -2 4 C-1.34 2.68 -0.68 1.36 0 0 Z " fill="#125E44" transform="translate(254,57)"/>
<path d="M0 0 C1.65 0.33 3.3 0.66 5 1 C4.67 1.66 4.34 2.32 4 3 C1.4375 3.625 1.4375 3.625 -1 4 C-0.67 2.68 -0.34 1.36 0 0 Z " fill="#144734" transform="translate(193,48)"/>
<path d="M0 0 C0 1.98 0 3.96 0 6 C-0.66 5.34 -1.32 4.68 -2 4 C-2.99 4.33 -3.98 4.66 -5 5 C-5 3.68 -5 2.36 -5 1 C-1.125 0 -1.125 0 0 0 Z " fill="#0C553C" transform="translate(260,23)"/>
</svg>
